<svg version="1.1" xmlns="http://www.w3.org/2000/svg" style="display: block;" viewBox="0 0 2048 2048" width="1024" height="1024" preserveAspectRatio="none">
<defs>
	<linearGradient id="Gradient1" gradientUnits="userSpaceOnUse" x1="1291.58" y1="1397.96" x2="1293.82" y2="1374.36">
		<stop class="stop0" offset="0" stop-opacity="1" stop-color="rgb(215,104,33)"/>
		<stop class="stop1" offset="1" stop-opacity="1" stop-color="rgb(251,147,56)"/>
	</linearGradient>
	<linearGradient id="Gradient2" gradientUnits="userSpaceOnUse" x1="1601.51" y1="1287.4" x2="1580.13" y2="1273.99">
		<stop class="stop0" offset="0" stop-opacity="1" stop-color="rgb(219,103,24)"/>
		<stop class="stop1" offset="1" stop-opacity="1" stop-color="rgb(237,136,41)"/>
	</linearGradient>
	<linearGradient id="Gradient3" gradientUnits="userSpaceOnUse" x1="555.709" y1="446.862" x2="550.982" y2="438.596">
		<stop class="stop0" offset="0" stop-opacity="1" stop-color="rgb(208,102,42)"/>
		<stop class="stop1" offset="1" stop-opacity="1" stop-color="rgb(224,131,55)"/>
	</linearGradient>
	<linearGradient id="Gradient4" gradientUnits="userSpaceOnUse" x1="1671.31" y1="1371.04" x2="1600.74" y2="1438.94">
		<stop class="stop0" offset="0" stop-opacity="1" stop-color="rgb(200,91,37)"/>
		<stop class="stop1" offset="1" stop-opacity="1" stop-color="rgb(214,122,52)"/>
	</linearGradient>
	<linearGradient id="Gradient5" gradientUnits="userSpaceOnUse" x1="1494.87" y1="846.798" x2="1506.57" y2="873.325">
		<stop class="stop0" offset="0" stop-opacity="1" stop-color="rgb(197,97,35)"/>
		<stop class="stop1" offset="1" stop-opacity="1" stop-color="rgb(222,125,47)"/>
	</linearGradient>
	<linearGradient id="Gradient6" gradientUnits="userSpaceOnUse" x1="1100.15" y1="972.421" x2="1125.88" y2="973.627">
		<stop class="stop0" offset="0" stop-opacity="1" stop-color="rgb(186,57,0)"/>
		<stop class="stop1" offset="1" stop-opacity="1" stop-color="rgb(213,88,11)"/>
	</linearGradient>
	<linearGradient id="Gradient7" gradientUnits="userSpaceOnUse" x1="1059.71" y1="979.413" x2="1053" y2="937.558">
		<stop class="stop0" offset="0" stop-opacity="1" stop-color="rgb(193,60,0)"/>
		<stop class="stop1" offset="1" stop-opacity="1" stop-color="rgb(229,86,2)"/>
	</linearGradient>
	<linearGradient id="Gradient8" gradientUnits="userSpaceOnUse" x1="1019.37" y1="1015.49" x2="1012.26" y2="1023.02">
		<stop class="stop0" offset="0" stop-opacity="1" stop-color="rgb(223,117,51)"/>
		<stop class="stop1" offset="1" stop-opacity="1" stop-color="rgb(243,149,78)"/>
	</linearGradient>
	<linearGradient id="Gradient9" gradientUnits="userSpaceOnUse" x1="1096.94" y1="995.76" x2="1045.82" y2="899.759">
		<stop class="stop0" offset="0" stop-opacity="1" stop-color="rgb(171,49,0)"/>
		<stop class="stop1" offset="1" stop-opacity="1" stop-color="rgb(251,125,25)"/>
	</linearGradient>
	<linearGradient id="Gradient10" gradientUnits="userSpaceOnUse" x1="1588.12" y1="1698.61" x2="1590.55" y2="1705.21">
		<stop class="stop0" offset="0" stop-opacity="1" stop-color="rgb(228,115,45)"/>
		<stop class="stop1" offset="1" stop-opacity="1" stop-color="rgb(241,148,73)"/>
	</linearGradient>
	<linearGradient id="Gradient11" gradientUnits="userSpaceOnUse" x1="1135.16" y1="1066.59" x2="1129.24" y2="1071.61">
		<stop class="stop0" offset="0" stop-opacity="1" stop-color="rgb(196,74,8)"/>
		<stop class="stop1" offset="1" stop-opacity="1" stop-color="rgb(207,103,36)"/>
	</linearGradient>
	<linearGradient id="Gradient12" gradientUnits="userSpaceOnUse" x1="1461.33" y1="1579.76" x2="1582.19" y2="1538.57">
		<stop class="stop0" offset="0" stop-opacity="1" stop-color="rgb(182,46,0)"/>
		<stop class="stop1" offset="1" stop-opacity="1" stop-color="rgb(210,108,46)"/>
	</linearGradient>
	<linearGradient id="Gradient13" gradientUnits="userSpaceOnUse" x1="1408.86" y1="1463.46" x2="1439.3" y2="1440.67">
		<stop class="stop0" offset="0" stop-opacity="1" stop-color="rgb(241,111,26)"/>
		<stop class="stop1" offset="1" stop-opacity="1" stop-color="rgb(232,138,52)"/>
	</linearGradient>
	<linearGradient id="Gradient14" gradientUnits="userSpaceOnUse" x1="1697.56" y1="1458" x2="1692.59" y2="1457.19">
		<stop class="stop0" offset="0" stop-opacity="1" stop-color="rgb(190,79,21)"/>
		<stop class="stop1" offset="1" stop-opacity="1" stop-color="rgb(244,116,24)"/>
	</linearGradient>
	<linearGradient id="Gradient15" gradientUnits="userSpaceOnUse" x1="1434.04" y1="1188.4" x2="1742.7" y2="1231.59">
		<stop class="stop0" offset="0" stop-opacity="1" stop-color="rgb(202,96,33)"/>
		<stop class="stop1" offset="1" stop-opacity="1" stop-color="rgb(247,129,37)"/>
	</linearGradient>
	<linearGradient id="Gradient16" gradientUnits="userSpaceOnUse" x1="656.362" y1="650.954" x2="644.296" y2="1024.72">
		<stop class="stop0" offset="0" stop-opacity="1" stop-color="rgb(180,71,23)"/>
		<stop class="stop1" offset="1" stop-opacity="1" stop-color="rgb(225,118,45)"/>
	</linearGradient>
	<linearGradient id="Gradient17" gradientUnits="userSpaceOnUse" x1="1027.73" y1="907.194" x2="1025.81" y2="898.774">
		<stop class="stop0" offset="0" stop-opacity="1" stop-color="rgb(219,115,43)"/>
		<stop class="stop1" offset="1" stop-opacity="1" stop-color="rgb(243,147,74)"/>
	</linearGradient>
	<linearGradient id="Gradient18" gradientUnits="userSpaceOnUse" x1="1074.76" y1="773.837" x2="1000.56" y2="817.142">
		<stop class="stop0" offset="0" stop-opacity="1" stop-color="rgb(198,75,20)"/>
		<stop class="stop1" offset="1" stop-opacity="1" stop-color="rgb(214,114,31)"/>
	</linearGradient>
	<linearGradient id="Gradient19" gradientUnits="userSpaceOnUse" x1="1003.8" y1="565.154" x2="551.974" y2="646.153">
		<stop class="stop0" offset="0" stop-opacity="1" stop-color="rgb(189,80,15)"/>
		<stop class="stop1" offset="1" stop-opacity="1" stop-color="rgb(227,129,60)"/>
	</linearGradient>
	<linearGradient id="Gradient20" gradientUnits="userSpaceOnUse" x1="392.06" y1="481.588" x2="380.597" y2="453.162">
		<stop class="stop0" offset="0" stop-opacity="1" stop-color="rgb(224,123,79)"/>
		<stop class="stop1" offset="1" stop-opacity="1" stop-color="rgb(238,182,127)"/>
	</linearGradient>
	<linearGradient id="Gradient21" gradientUnits="userSpaceOnUse" x1="469.074" y1="628.711" x2="473.803" y2="639.617">
		<stop class="stop0" offset="0" stop-opacity="1" stop-color="rgb(223,124,52)"/>
		<stop class="stop1" offset="1" stop-opacity="1" stop-color="rgb(236,157,92)"/>
	</linearGradient>
	<linearGradient id="Gradient22" gradientUnits="userSpaceOnUse" x1="481.851" y1="611.619" x2="422.959" y2="443.602">
		<stop class="stop0" offset="0" stop-opacity="1" stop-color="rgb(171,32,0)"/>
		<stop class="stop1" offset="1" stop-opacity="1" stop-color="rgb(253,135,37)"/>
	</linearGradient>
</defs>
<path transform="translate(0,0)" fill="url(#Gradient22)" d="M 328.961 510.686 C 331.553 504.675 333.42 499.872 336.582 494.046 C 358.676 453.344 408.638 431.582 453.66 444.125 C 474.031 448.067 488.975 460.109 503.74 473.978 C 503.293 476.801 503.12 477.184 503.108 480.012 L 504.59 481.433 L 505.837 481.167 L 508.317 481.957 C 509.218 483.724 508.809 483.717 510.097 484.518 C 517.75 493.125 522.638 504.671 526.723 515.378 L 527.404 515.803 C 527.319 518.321 527.181 517.334 528.406 519.724 C 533.643 521.749 571.071 509.955 578.975 508.14 C 627.39 497.021 680.57 488.37 730.264 493.586 C 718.412 494.3 701.994 492.974 690.874 493.118 C 678.333 493.28 599.6 500.542 595.796 507.849 C 597.624 507.684 596.929 507.89 598.627 507.425 C 615.071 502.915 671.598 495.654 686.331 498.85 C 670.581 500.525 653.515 500.765 638.29 502.69 C 603.141 507.135 562.532 516.128 529.768 529.071 C 530.924 534.635 531.649 542.938 531.054 548.602 C 531.254 568.335 526.674 580.226 519.065 598.671 C 518.33 600.452 518.551 599.723 518.581 601.893 L 515.776 605.438 L 513.7 603.686 L 511.933 603.975 L 514.745 609.229 L 515.792 611.371 C 512.778 611.156 512.08 610.666 509.648 613.105 C 493.584 632.863 467.909 649.738 442.097 652.077 C 437.02 652.068 432.738 652.692 428.98 649.495 C 425.205 651.032 427.194 650.662 422.717 650.033 L 421.993 650.279 L 419.6 649.496 C 418.071 647.143 418.801 643.687 418.991 640.635 L 421.236 636.174 L 418.145 638.158 C 415.756 641.949 415.503 640.971 416.026 644.348 C 413.794 647.769 413.176 647.918 408.819 648.359 C 390.851 641.624 387.09 645.847 370.279 629.401 C 331.339 602.627 317.933 555.397 332.359 511.126 L 328.961 510.686 z"/>
<path transform="translate(0,0)" fill="rgb(171,52,2)" d="M 370.279 629.401 C 385.793 626.293 380.818 607.245 387.429 600.861 C 402.939 585.883 435.529 560.289 457.188 557.679 C 467.271 558.09 482.481 562.992 490.156 569.193 C 494.337 572.572 493.26 578.676 494.9 583.963 L 495.218 584.954 L 492.947 586.061 L 491.781 587.066 C 493.958 592.762 506.36 599.687 511.933 603.975 L 514.745 609.229 L 515.792 611.371 C 512.778 611.156 512.08 610.666 509.648 613.105 C 493.584 632.863 467.909 649.738 442.097 652.077 C 437.02 652.068 432.738 652.692 428.98 649.495 C 425.205 651.032 427.194 650.662 422.717 650.033 L 421.993 650.279 L 419.6 649.496 C 418.071 647.143 418.801 643.687 418.991 640.635 L 421.236 636.174 L 418.145 638.158 C 415.756 641.949 415.503 640.971 416.026 644.348 C 413.794 647.769 413.176 647.918 408.819 648.359 C 390.851 641.624 387.09 645.847 370.279 629.401 z"/>
<path transform="translate(0,0)" fill="url(#Gradient21)" d="M 505.911 610.175 L 509.648 613.105 C 493.584 632.863 467.909 649.738 442.097 652.077 C 437.02 652.068 432.738 652.692 428.98 649.495 C 431.787 648.678 434.802 648.243 437.7 647.714 C 458.42 645.059 480.738 635.281 495.612 620.804 C 499.023 617.484 501.565 614.161 504.459 611.494 L 505.911 610.175 z"/>
<path transform="translate(0,0)" fill="rgb(209,100,32)" d="M 437.7 647.714 C 441.558 641.401 449.839 641.239 456.891 638.616 C 475.851 631.563 488.782 622.494 501.558 606.88 L 505.911 610.175 L 504.459 611.494 C 501.565 614.161 499.023 617.484 495.612 620.804 C 480.738 635.281 458.42 645.059 437.7 647.714 z"/>
<path transform="translate(0,0)" fill="rgb(209,100,32)" d="M 469.483 606.834 C 474.752 603.709 478.733 597.51 484.767 595.908 C 486.473 595.455 487.456 596.817 489.374 598.181 L 490.964 600.142 C 487.205 604.021 479.518 613.13 475.437 615.009 C 469.681 614.845 470.423 612.345 469.483 606.834 z"/>
<path transform="translate(0,0)" fill="rgb(220,99,17)" d="M 490.964 600.142 L 496.122 603.69 C 487.326 612.174 483.799 615.015 473.172 620.911 C 470.722 616.787 468.706 614.239 468.11 609.51 L 469.483 606.834 C 470.423 612.345 469.681 614.845 475.437 615.009 C 479.518 613.13 487.205 604.021 490.964 600.142 z"/>
<path transform="translate(0,0)" fill="rgb(140,41,11)" d="M 489.374 598.181 L 488.608 594.734 L 489.976 593.755 C 497.152 595.863 506.919 606.795 514.745 609.229 L 515.792 611.371 C 512.778 611.156 512.08 610.666 509.648 613.105 L 505.911 610.175 L 501.558 606.88 L 496.122 603.69 L 490.964 600.142 L 489.374 598.181 z"/>
<path transform="translate(0,0)" fill="rgb(220,99,17)" d="M 404.32 633.916 C 408.801 629.166 413.858 624.424 420.367 629.064 C 421.653 632.646 421.608 632.381 421.236 636.174 L 418.145 638.158 C 413.396 636.902 408.981 635.431 404.32 633.916 z"/>
<path transform="translate(0,0)" fill="rgb(140,41,11)" d="M 418.991 640.635 C 423.425 640.617 426.423 640.309 430.696 641.648 L 430.974 643.084 C 428.54 644.887 424.14 647.69 422.717 650.033 L 421.993 650.279 L 419.6 649.496 C 418.071 647.143 418.801 643.687 418.991 640.635 z"/>
<path transform="translate(0,0)" fill="url(#Gradient20)" d="M 328.961 510.686 C 331.553 504.675 333.42 499.872 336.582 494.046 C 358.676 453.344 408.638 431.582 453.66 444.125 C 450.182 446.293 445.578 445.734 441.534 445.41 C 392.049 441.439 353.357 468.423 332.359 511.126 L 328.961 510.686 z"/>
<path transform="translate(0,0)" fill="rgb(220,99,17)" d="M 505.837 481.167 L 508.317 481.957 C 509.218 483.724 508.809 483.717 510.097 484.518 C 517.75 493.125 522.638 504.671 526.723 515.378 C 524.001 517.652 523.794 517.621 520.692 519.035 C 519.744 516.759 520.143 517.527 518.443 515.63 C 513.79 514.091 512.951 513.962 508.98 511.287 C 509.536 509.421 510.554 501.531 510.377 499.491 C 508.068 492.585 509.759 488.144 505.837 481.167 z"/>
<path transform="translate(0,0)" fill="rgb(209,100,32)" d="M 492.947 586.061 C 497.393 589.497 506.395 598.353 510.94 598.128 C 512.967 596.632 521.211 580.042 522.686 576.707 L 523.286 575.324 C 525.601 579.504 515.27 592.766 516.202 598.69 C 525.308 588.987 527.734 561.25 531.054 548.602 C 531.254 568.335 526.674 580.226 519.065 598.671 C 518.33 600.452 518.551 599.723 518.581 601.893 L 515.776 605.438 L 513.7 603.686 L 511.933 603.975 C 506.36 599.687 493.958 592.762 491.781 587.066 L 492.947 586.061 z"/>
<path transform="translate(0,0)" fill="rgb(236,131,51)" d="M 504.59 481.433 L 505.837 481.167 C 509.759 488.144 508.068 492.585 510.377 499.491 C 507.177 500.996 507.097 501.484 503.732 501.566 C 501.121 496.183 498.996 488.088 498.333 482.182 L 499.71 481.272 C 501.438 481.576 502.848 481.489 504.59 481.433 z"/>
<path transform="translate(0,0)" fill="rgb(236,131,51)" d="M 520.692 519.035 C 518.433 521.913 517.98 523.057 514.469 524.056 C 507.882 522.973 504.748 515.676 505.502 509.66 L 508.98 511.287 C 512.951 513.962 513.79 514.091 518.443 515.63 C 520.143 517.527 519.744 516.759 520.692 519.035 z"/>
<path transform="translate(0,0)" fill="rgb(251,183,89)" d="M 392.451 505.692 C 398.459 506.244 402.279 512.412 405.505 516.984 C 398.567 530.1 397.154 533.981 395.241 548.591 C 392.193 547.628 388.417 546.895 385.231 546.189 C 380.467 545.617 375.698 545.085 370.925 544.594 C 370.513 526.07 376.04 514.903 392.451 505.692 z"/>
<path transform="translate(0,0)" fill="rgb(236,131,51)" d="M 481.869 507.73 C 490.528 510.625 499.66 533.212 494.816 540.903 C 490.537 543.27 484.043 544.16 479.069 545.178 C 475.786 545.758 475.832 545.937 472.629 545.289 C 470.12 535.79 468.599 528.815 464.355 519.887 L 463.591 518.3 C 469.944 514.876 474.888 511.247 481.869 507.73 z"/>
<path transform="translate(0,0)" fill="rgb(236,131,51)" d="M 364.78 598.385 C 372.417 601.48 376.858 604.18 383.831 608.516 C 381.485 613.685 378.466 619.425 375.898 624.566 L 374.63 626.563 L 372.416 626.5 C 359.347 618.447 358.957 611.295 364.78 598.385 z"/>
<path transform="translate(0,0)" fill="rgb(236,131,51)" d="M 512.62 561.501 C 522.974 568.779 511.875 585.583 507.003 593.634 C 504.595 592.08 501.86 591.043 501.496 588.368 C 500.278 579.414 507.698 567.904 512.62 561.501 z"/>
<path transform="translate(0,0)" fill="rgb(236,131,51)" d="M 508.082 533.471 C 510.871 534.951 509.679 533.936 511.443 536.965 C 511.664 541.069 510.885 542.16 509.317 546.12 L 507.921 545.357 C 505.839 541.706 507.078 537.348 508.082 533.471 z"/>
<path transform="translate(0,0)" fill="url(#Gradient19)" d="M 527.404 515.803 C 645.364 480.394 775.735 467.855 888.832 528.031 C 958.222 564.951 996.576 617.451 1027.66 687.724 C 1026.14 692.468 1026.74 694.756 1027.2 699.664 C 1025.69 701.709 1026.62 700.829 1023.85 701.763 C 1017.71 698.918 1016.15 690.82 1012.08 684.315 L 1010.66 684.236 C 1007.16 678.802 999.375 661.588 995.237 654.149 C 980.89 628.526 963.063 605.014 942.264 584.283 C 891.903 534.427 823.759 507.564 753.928 500.699 C 731.216 498.466 709.124 498.728 686.331 498.85 C 671.598 495.654 615.071 502.915 598.627 507.425 C 596.929 507.89 597.624 507.684 595.796 507.849 C 599.6 500.542 678.333 493.28 690.874 493.118 C 701.994 492.974 718.412 494.3 730.264 493.586 C 680.57 488.37 627.39 497.021 578.975 508.14 C 571.071 509.955 533.643 521.749 528.406 519.724 C 527.181 517.334 527.319 518.321 527.404 515.803 z"/>
<path transform="translate(0,0)" fill="rgb(209,100,32)" d="M 518.581 601.893 C 525.83 605.2 552.15 623.292 560.128 628.523 C 592.05 649.245 623.757 670.297 655.244 691.675 L 905.125 859.169 C 934.882 879 967.485 902.657 997.446 921.541 C 1000.59 917.738 1003.68 913.525 1007.54 910.566 L 1010.88 912.479 L 1008.8 915.302 C 1005.43 919.872 1003.54 923.166 998.821 926.366 L 993.297 932.954 C 992.75 932.94 992.203 932.927 991.656 932.913 C 986.689 926.345 916.73 880.202 903.994 871.641 L 637.274 692.875 L 558.1 640.337 C 546.222 632.44 526.557 619.96 515.792 611.371 L 514.745 609.229 L 511.933 603.975 L 513.7 603.686 L 515.776 605.438 L 518.581 601.893 z"/>
<path transform="translate(0,0)" fill="url(#Gradient18)" d="M 1010.66 684.236 L 1012.08 684.315 C 1016.15 690.82 1017.71 698.918 1023.85 701.763 C 1026.62 700.829 1025.69 701.709 1027.2 699.664 C 1026.74 694.756 1026.14 692.468 1027.66 687.724 C 1046.73 736.539 1057.91 788.071 1060.81 840.396 C 1061.39 850.245 1060.21 888.638 1061.86 894.334 C 1058.08 897.335 1054.48 894.261 1046.41 896.426 L 1047.64 894.687 L 1045.2 893.305 L 1047.2 892.488 C 1052.7 877.271 1042.89 795.848 1039.34 777.272 C 1036.73 767.518 1034.05 752.504 1031.71 742.115 C 1024.28 723.67 1019.3 704.983 1010.66 684.236 z"/>
<path transform="translate(0,0)" fill="rgb(227,123,41)" d="M 1031.71 742.115 C 1039.08 746.226 1040.69 768.992 1039.34 777.272 C 1036.73 767.518 1034.05 752.504 1031.71 742.115 z"/>
<path transform="translate(0,0)" fill="url(#Gradient17)" d="M 1007.54 910.566 C 1018.4 901.159 1031.23 895.957 1045.2 893.305 L 1047.64 894.687 L 1046.41 896.426 C 1044.09 897.927 1041.73 899.515 1039.32 900.866 C 1030.73 901.271 1017.76 905.455 1012.06 911.986 L 1010.88 912.479 L 1007.54 910.566 z"/>
<path transform="translate(0,0)" fill="url(#Gradient16)" d="M 328.961 510.686 L 332.359 511.126 C 317.933 555.397 331.339 602.627 370.279 629.401 C 387.09 645.847 390.851 641.624 408.819 648.359 C 412.18 650.152 412.846 649.681 413.705 652.322 C 410.771 662.791 415.658 678.734 413.295 691.231 C 412.054 678.606 411.841 665.284 411.402 652.564 C 399.727 650.648 396.019 649.239 385.247 644.243 C 380.778 647.238 374.578 657.516 371.821 662.306 C 344.9 709.091 321.416 760.753 320.352 815.565 C 319.603 854.161 323.079 887.391 345.802 919.791 C 378.045 968.671 433.608 991.648 488.87 1003.41 C 562.606 1019.1 636.774 1015.96 711.448 1011.94 C 784.269 1008.02 855.612 1000.29 927.236 986.636 C 941.339 983.947 961.51 978.386 975.139 977.368 C 978.427 978.939 978.511 979.521 981.829 979.305 L 986.356 983.665 L 985.921 985.628 C 972.979 985.614 951.178 991.525 937.611 993.972 C 917.292 997.636 895.856 1002.14 875.506 1005.12 C 818.193 1013.57 760.51 1019.28 702.653 1022.23 C 597.701 1028.16 475.707 1030.93 384.336 971.248 C 376.763 965.5 369.254 959.7 362.202 953.293 C 299.77 896.569 300.437 806.016 325.454 731.503 C 337.007 697.094 353.52 668.979 372.864 638.233 C 358.68 626.468 346.491 616.424 337.468 600.063 C 321.332 570.804 319.997 542.181 328.961 510.686 z"/>
<path transform="translate(0,0)" fill="rgb(239,149,63)" d="M 328.961 510.686 L 332.359 511.126 C 317.933 555.397 331.339 602.627 370.279 629.401 C 387.09 645.847 390.851 641.624 408.819 648.359 C 412.18 650.152 412.846 649.681 413.705 652.322 C 410.771 662.791 415.658 678.734 413.295 691.231 C 412.054 678.606 411.841 665.284 411.402 652.564 C 399.727 650.648 396.019 649.239 385.247 644.243 C 381.524 640.605 380.953 640.033 376.265 637.845 C 342.402 691.261 318.015 740.096 313.503 804.535 C 309.975 854.928 317.368 896.506 351.045 935.512 C 356.489 941.817 360.736 949.229 368.002 953.653 C 373.263 957.341 384.53 964.143 388.22 968.62 L 385.468 968.618 C 384.653 969.995 384.464 969.846 384.336 971.248 C 376.763 965.5 369.254 959.7 362.202 953.293 C 299.77 896.569 300.437 806.016 325.454 731.503 C 337.007 697.094 353.52 668.979 372.864 638.233 C 358.68 626.468 346.491 616.424 337.468 600.063 C 321.332 570.804 319.997 542.181 328.961 510.686 z"/>
<path transform="translate(0,0)" fill="rgb(209,100,32)" d="M 418.145 638.158 L 421.236 636.174 L 418.991 640.635 C 418.801 643.687 418.071 647.143 419.6 649.496 L 421.993 650.279 L 422.717 650.033 C 427.194 650.662 425.205 651.032 428.98 649.495 C 432.738 652.692 437.02 652.068 442.097 652.077 C 435.819 653.428 430.654 653.036 424.253 652.899 C 422.211 715.612 437.312 765.003 481.159 811.674 C 544.722 879.331 634.316 911.042 722.457 931.591 C 802.8 950.322 866.157 957.823 948.324 959.984 C 959.645 960.302 970.974 960.196 982.287 959.666 L 985.118 961.162 C 988.081 964.516 988.812 964.848 989.201 969.043 L 986.551 969.659 L 986.099 970.551 C 980.839 969.611 957.045 969.734 950.084 969.601 C 927.777 969.377 905.486 968.324 883.257 966.443 C 719.955 952 432.123 895.171 413.295 691.231 C 415.658 678.734 410.771 662.791 413.705 652.322 C 412.846 649.681 412.18 650.152 408.819 648.359 C 413.176 647.918 413.794 647.769 416.026 644.348 C 415.503 640.971 415.756 641.949 418.145 638.158 z"/>
<path transform="translate(0,0)" fill="rgb(171,52,2)" d="M 418.145 638.158 L 421.236 636.174 L 418.991 640.635 C 418.801 643.687 418.071 647.143 419.6 649.496 L 421.993 650.279 C 420.077 655.371 419.472 669.133 417.403 677.763 C 416.88 669.218 419.708 648.506 416.026 644.348 C 415.503 640.971 415.756 641.949 418.145 638.158 z"/>
<path transform="translate(0,0)" fill="rgb(190,66,7)" d="M 998.821 926.366 C 1000.42 931.063 1000.29 931.368 999.213 936.472 L 998.289 939.958 L 999.074 944.927 L 1001.92 952.608 L 999.157 955.231 C 996.833 954.801 996.818 954.833 994.553 954.06 L 992.142 954.798 L 990.513 959.088 C 988.897 959.642 988.285 959.692 986.639 959.901 L 985.118 961.162 L 982.287 959.666 C 985.722 957.543 985.108 940.319 991.656 932.913 C 992.203 932.927 992.75 932.94 993.297 932.954 L 998.821 926.366 z"/>
<path transform="translate(0,0)" fill="rgb(220,99,17)" d="M 992.142 954.798 C 991.236 946.063 994.949 947.11 998.289 939.958 L 999.074 944.927 L 1001.92 952.608 L 999.157 955.231 C 996.833 954.801 996.818 954.833 994.553 954.06 L 992.142 954.798 z"/>
<path transform="translate(0,0)" fill="url(#Gradient15)" d="M 1634.87 745.174 C 1643.95 739.479 1653.03 741.766 1658.98 750.598 C 1664.44 759.615 1658.08 770.768 1660.19 780.967 C 1666.36 810.972 1675.12 840.455 1681.38 870.439 C 1683.04 878.408 1686.64 890.952 1687.62 898.286 C 1695.15 928.573 1701.58 965 1706.74 995.929 C 1733.34 1151.7 1735.07 1310.71 1711.85 1467.03 C 1707.9 1493.47 1698.24 1552.87 1687.62 1578.06 C 1683.89 1593.4 1669.8 1625.99 1660.41 1637.91 C 1659.24 1639.92 1658.48 1641.7 1656.83 1643.23 C 1649.39 1655.65 1634.32 1675.26 1622.48 1683.74 C 1623.25 1680.4 1627.19 1676.67 1627 1673.77 C 1622.39 1676.65 1619.2 1678.96 1614.03 1680.69 C 1609.25 1683.52 1601.93 1688.29 1597.01 1690.13 L 1594.13 1691.2 L 1587.93 1690.38 C 1584.91 1686.53 1583.9 1685.49 1581.88 1681.15 L 1583.37 1683.52 L 1583.99 1680.99 C 1590.24 1681.96 1592.03 1681.48 1598.07 1680.5 L 1600.24 1675.45 C 1604.17 1670.99 1613.98 1664.05 1618.85 1659.14 C 1627.75 1650.2 1633.33 1643.09 1640.33 1632.61 C 1663.91 1592.44 1668.72 1566.98 1671.19 1521.24 L 1670.82 1500.93 L 1671.09 1502.22 C 1672.09 1507.17 1672.27 1508.51 1672.2 1513.51 L 1673.4 1513.84 L 1676.47 1512.01 C 1676.67 1514 1676.8 1513.15 1676.34 1514.59 L 1676.29 1521.01 L 1677.51 1522.23 C 1684.06 1521.41 1685.14 1508.31 1686.45 1502.47 C 1691.98 1473.08 1695.75 1439.68 1699.5 1410 C 1699.67 1408.74 1699.83 1407.48 1699.98 1406.21 C 1705.58 1358.75 1716.05 1110.69 1693.75 1082.28 L 1690.49 1078.4 C 1682.88 1077.34 1672.93 1074.53 1663.16 1073.22 C 1603.99 1065.41 1544.43 1061 1484.76 1060.02 C 1477.15 1059.94 1464.51 1059.62 1456.69 1060.47 C 1456.02 1061.13 1455.34 1061.79 1454.67 1062.45 L 1451.92 1061.17 C 1452.59 1059.74 1453.7 1058.22 1454.59 1056.88 C 1454.39 1051.94 1455.06 1054.17 1452.45 1049.92 C 1455.41 1048.96 1455.32 1048.9 1457.87 1047.04 L 1458.68 1049.05 C 1464.48 1049.57 1483.42 1047.88 1491.17 1047.83 C 1517.63 1047.71 1544.08 1048.39 1570.5 1049.87 C 1608.53 1052.26 1645.7 1057.36 1683.47 1062.02 C 1686.09 1062.34 1688.94 1062.18 1691.42 1061.28 C 1695.09 1056.16 1694.98 1049.89 1694.16 1043.96 C 1691.82 1016.59 1687.68 993.651 1682.89 966.7 C 1675.37 923.458 1665.95 880.571 1654.64 838.163 C 1650.37 831.491 1644.64 830.233 1637.41 828.082 L 1645.61 828.134 L 1642.5 825.253 L 1642.44 822.373 C 1638.23 824.011 1628.35 822.346 1622.84 822.063 L 1625.12 819.122 C 1665.44 817.577 1630.98 777.263 1626.74 758.896 L 1626.41 757.396 C 1628.84 751.213 1629.78 749.424 1634.87 745.174 z"/>
<path transform="translate(0,0)" fill="rgb(209,100,32)" d="M 1634.87 745.174 C 1643.95 739.479 1653.03 741.766 1658.98 750.598 C 1664.44 759.615 1658.08 770.768 1660.19 780.967 C 1666.36 810.972 1675.12 840.455 1681.38 870.439 C 1683.04 878.408 1686.64 890.952 1687.62 898.286 C 1686.91 899.068 1687.37 898.76 1686.14 899.042 C 1681.23 866.624 1669.57 832.248 1662.89 799.943 C 1662.27 796.944 1656.77 767.109 1657.41 767.97 C 1655.04 769.098 1652.28 772.617 1652.97 775.394 C 1660.26 804.661 1666.71 833.925 1671.97 863.619 C 1673.41 871.729 1678.44 880.412 1678.07 888.822 C 1676.89 881.13 1676.33 876.28 1668.86 875.119 C 1665.81 861.93 1662.98 848.785 1658.9 835.876 C 1655.47 831.412 1650.71 830.025 1645.61 828.134 L 1642.5 825.253 L 1642.44 822.373 C 1638.23 824.011 1628.35 822.346 1622.84 822.063 L 1625.12 819.122 C 1665.44 817.577 1630.98 777.263 1626.74 758.896 L 1626.41 757.396 C 1628.84 751.213 1629.78 749.424 1634.87 745.174 z"/>
<path transform="translate(0,0)" fill="rgb(239,149,63)" d="M 1634.87 745.174 C 1635.62 752.386 1634.33 754.376 1634.16 760.657 C 1632.53 758.254 1632.59 757.311 1630.53 756.876 C 1626.48 766.957 1659.82 799.566 1643.91 821.455 L 1642.44 822.373 C 1638.23 824.011 1628.35 822.346 1622.84 822.063 L 1625.12 819.122 C 1665.44 817.577 1630.98 777.263 1626.74 758.896 L 1626.41 757.396 C 1628.84 751.213 1629.78 749.424 1634.87 745.174 z"/>
<path transform="translate(0,0)" fill="rgb(239,149,63)" d="M 1643.91 821.455 C 1659.25 814.737 1646.99 794.246 1648.92 784.29 L 1650 783.963 C 1651.77 802.937 1662.51 811.549 1658.9 835.876 C 1655.47 831.412 1650.71 830.025 1645.61 828.134 L 1642.5 825.253 L 1642.44 822.373 L 1643.91 821.455 z"/>
<path transform="translate(0,0)" fill="rgb(249,169,68)" d="M 1634.87 745.174 C 1643.95 739.479 1653.03 741.766 1658.98 750.598 C 1655.47 751.331 1648.51 751.146 1646.58 752.15 C 1645.75 755.639 1645.34 759.23 1642.96 761.764 C 1639.44 762.972 1637.37 762.473 1634.16 760.657 C 1634.33 754.376 1635.62 752.386 1634.87 745.174 z"/>
<path transform="translate(0,0)" fill="rgb(190,66,7)" d="M 1652.64 752.417 C 1659.01 756.207 1658.36 762.431 1653.5 767.106 L 1651.35 765.952 C 1646.65 759.509 1647.18 757.633 1652.64 752.417 z"/>
<path transform="translate(0,0)" fill="rgb(140,41,11)" d="M 1690.49 1078.4 C 1705.84 1080.69 1705.99 1093.32 1707.11 1106.45 C 1716.4 1215.65 1714.76 1327.71 1701.5 1436.55 C 1700.41 1445.5 1698.24 1455.74 1697.62 1464.52 C 1695.53 1478.91 1693.51 1495.01 1690.64 1509.11 C 1688.46 1503.62 1689.24 1509.52 1686.45 1502.47 C 1691.98 1473.08 1695.75 1439.68 1699.5 1410 C 1699.67 1408.74 1699.83 1407.48 1699.98 1406.21 C 1705.58 1358.75 1716.05 1110.69 1693.75 1082.28 L 1690.49 1078.4 z"/>
<path transform="translate(0,0)" fill="rgb(236,131,51)" d="M 1693.75 1082.28 L 1694.9 1081.8 C 1701.25 1084.93 1702.9 1093.25 1703.8 1099.62 C 1709.95 1143.42 1710.4 1187.42 1710.39 1231.57 C 1710.73 1269.23 1709.91 1306.88 1707.91 1344.48 C 1707.21 1358.78 1706.22 1373.05 1704.95 1387.3 C 1704.68 1390.46 1703.15 1406.14 1703.34 1408.25 L 1699.5 1410 C 1699.67 1408.74 1699.83 1407.48 1699.98 1406.21 C 1705.58 1358.75 1716.05 1110.69 1693.75 1082.28 z"/>
<path transform="translate(0,0)" fill="url(#Gradient14)" d="M 1699.5 1410 L 1703.34 1408.25 C 1701.46 1426.96 1698.13 1445.88 1696.38 1463.93 L 1697.62 1464.52 C 1695.53 1478.91 1693.51 1495.01 1690.64 1509.11 C 1688.46 1503.62 1689.24 1509.52 1686.45 1502.47 C 1691.98 1473.08 1695.75 1439.68 1699.5 1410 z"/>
<path transform="translate(0,0)" fill="rgb(209,100,32)" d="M 1686.45 1502.47 C 1689.24 1509.52 1688.46 1503.62 1690.64 1509.11 C 1687.18 1532.71 1680.61 1557.39 1672.98 1580.07 C 1670.26 1588.17 1652.99 1617.09 1652.5 1622.76 L 1647.7 1629.49 C 1644.28 1631.37 1644.04 1631.52 1640.33 1632.61 C 1663.91 1592.44 1668.72 1566.98 1671.19 1521.24 L 1670.82 1500.93 L 1671.09 1502.22 C 1672.09 1507.17 1672.27 1508.51 1672.2 1513.51 L 1673.4 1513.84 L 1676.47 1512.01 C 1676.67 1514 1676.8 1513.15 1676.34 1514.59 L 1676.29 1521.01 L 1677.51 1522.23 C 1684.06 1521.41 1685.14 1508.31 1686.45 1502.47 z"/>
<path transform="translate(0,0)" fill="rgb(236,131,51)" d="M 1670.82 1500.93 L 1671.09 1502.22 C 1672.09 1507.17 1672.27 1508.51 1672.2 1513.51 L 1673.4 1513.84 L 1676.47 1512.01 C 1676.67 1514 1676.8 1513.15 1676.34 1514.59 L 1676.29 1521.01 L 1677.51 1522.23 C 1680.15 1522.94 1681.32 1522.89 1683.02 1524.94 C 1679.84 1534.16 1673.07 1575.56 1667.83 1580.44 C 1667.4 1572.97 1679.24 1537.05 1676.87 1531.49 C 1673.54 1530.08 1674.33 1530.91 1672.08 1528.51 C 1672.15 1525.8 1672.5 1523.72 1671.19 1521.24 L 1670.82 1500.93 z"/>
<path transform="translate(0,0)" fill="rgb(209,100,32)" d="M 1637.41 828.082 L 1645.61 828.134 C 1650.71 830.025 1655.47 831.412 1658.9 835.876 C 1662.98 848.785 1665.81 861.93 1668.86 875.119 C 1674.52 899.906 1679.59 926.715 1684.52 951.762 C 1687.48 966.825 1692.84 992.562 1694.47 1007.53 C 1697.15 1016.32 1702.11 1048.77 1698.69 1057.49 L 1697.45 1058.19 C 1695.85 1053.09 1695.86 1046.96 1694.16 1043.96 C 1691.82 1016.59 1687.68 993.651 1682.89 966.7 C 1675.37 923.458 1665.95 880.571 1654.64 838.163 C 1650.37 831.491 1644.64 830.233 1637.41 828.082 z"/>
<path transform="translate(0,0)" fill="rgb(91,27,12)" d="M 1637.41 828.082 L 1645.61 828.134 C 1650.71 830.025 1655.47 831.412 1658.9 835.876 C 1662.98 848.785 1665.81 861.93 1668.86 875.119 C 1674.52 899.906 1679.59 926.715 1684.52 951.762 C 1687.48 966.825 1692.84 992.562 1694.47 1007.53 C 1690.66 1003.72 1671.79 888.97 1666.81 875.107 C 1663.76 866.648 1662.67 848.27 1656.74 837.953 L 1654.64 838.163 C 1650.37 831.491 1644.64 830.233 1637.41 828.082 z"/>
<path transform="translate(0,0)" fill="rgb(236,131,51)" d="M 1652.5 1622.76 C 1652.06 1627.35 1648.66 1635.83 1646.12 1639.56 C 1640.07 1648.41 1632.8 1656.47 1626.91 1665.45 C 1626.81 1665.61 1627.53 1668.52 1627.71 1669.06 C 1623.13 1672.88 1618.43 1676.69 1614.03 1680.69 C 1609.25 1683.52 1601.93 1688.29 1597.01 1690.13 L 1594.13 1691.2 L 1587.93 1690.38 C 1584.91 1686.53 1583.9 1685.49 1581.88 1681.15 L 1583.37 1683.52 L 1583.99 1680.99 C 1590.24 1681.96 1592.03 1681.48 1598.07 1680.5 L 1600.24 1675.45 C 1604.17 1670.99 1613.98 1664.05 1618.85 1659.14 C 1627.75 1650.2 1633.33 1643.09 1640.33 1632.61 C 1644.04 1631.52 1644.28 1631.37 1647.7 1629.49 L 1652.5 1622.76 z"/>
<path transform="translate(0,0)" fill="rgb(251,183,89)" d="M 1652.5 1622.76 C 1652.06 1627.35 1648.66 1635.83 1646.12 1639.56 C 1640.07 1648.41 1632.8 1656.47 1626.91 1665.45 C 1626.81 1665.61 1627.53 1668.52 1627.71 1669.06 C 1623.13 1672.88 1618.43 1676.69 1614.03 1680.69 C 1609.25 1683.52 1601.93 1688.29 1597.01 1690.13 C 1594.85 1689.89 1593.55 1689.66 1591.43 1689.22 L 1592.29 1687.64 C 1597.06 1685.2 1598.76 1684.27 1603.02 1681 L 1603.99 1680.25 C 1617.19 1670.99 1630.12 1657.1 1640.45 1644.69 C 1643.21 1641.37 1644.36 1634.08 1647.7 1629.49 L 1652.5 1622.76 z"/>
<path transform="translate(0,0)" fill="rgb(227,123,41)" d="M 1629.55 1667.02 C 1633.09 1661.51 1642.58 1652.23 1645.11 1647.83 C 1652.79 1634.47 1660.39 1621.94 1668.69 1608.96 C 1667.2 1614.3 1660.29 1634.38 1660.41 1637.91 C 1659.24 1639.92 1658.48 1641.7 1656.83 1643.23 C 1649.39 1655.65 1634.32 1675.26 1622.48 1683.74 C 1623.25 1680.4 1627.19 1676.67 1627 1673.77 C 1622.39 1676.65 1619.2 1678.96 1614.03 1680.69 C 1618.43 1676.69 1623.13 1672.88 1627.71 1669.06 L 1629.55 1667.02 z"/>
<path transform="translate(0,0)" fill="rgb(236,131,51)" d="M 1629.55 1667.02 C 1639 1661.67 1641.52 1651.86 1656.83 1643.23 C 1649.39 1655.65 1634.32 1675.26 1622.48 1683.74 C 1623.25 1680.4 1627.19 1676.67 1627 1673.77 C 1622.39 1676.65 1619.2 1678.96 1614.03 1680.69 C 1618.43 1676.69 1623.13 1672.88 1627.71 1669.06 L 1629.55 1667.02 z"/>
<path transform="translate(0,0)" fill="rgb(236,131,51)" d="M 1668.69 1608.96 C 1668.49 1606.24 1680.67 1572.66 1681.98 1571.38 C 1682.88 1575.16 1678.74 1589.19 1677.61 1593.54 L 1678.04 1593.94 C 1680.99 1589.74 1685.95 1579.06 1687.62 1578.06 C 1683.89 1593.4 1669.8 1625.99 1660.41 1637.91 C 1660.29 1634.38 1667.2 1614.3 1668.69 1608.96 z"/>
<path transform="translate(0,0)" fill="rgb(209,100,32)" d="M 1093.79 997.158 C 1096.59 998.955 1103.71 1003.73 1106.52 1003.97 C 1118.78 1005.01 1119.53 982.431 1127.35 976.858 C 1125.39 989.756 1118.13 1003.32 1108.49 1012.15 C 1113.92 1018.37 1142.85 1051.08 1145.17 1056.11 C 1151.58 1061.84 1163.63 1077.57 1169.88 1085.12 C 1191.14 1110.8 1212.08 1136.77 1232.67 1163 L 1268.93 1208.61 C 1273.46 1214.34 1283.42 1226.36 1286.76 1231.87 C 1290.74 1235.8 1299.67 1248.25 1303.45 1253.3 C 1316.03 1270.19 1328.51 1287.16 1340.87 1304.2 C 1402.41 1387.84 1458.11 1467.26 1512.43 1556.01 C 1527.54 1581.22 1542.02 1606.79 1555.87 1632.72 C 1562.67 1645.57 1569.74 1660 1577.04 1672.61 C 1579.1 1676.18 1585.29 1678.82 1589.04 1680.53 C 1592.8 1678.88 1596.55 1677.28 1600.24 1675.45 L 1598.07 1680.5 C 1592.03 1681.48 1590.24 1681.96 1583.99 1680.99 L 1583.37 1683.52 L 1581.88 1681.15 C 1583.9 1685.49 1584.91 1686.53 1587.93 1690.38 L 1594.13 1691.2 L 1597.01 1690.13 C 1601.93 1688.29 1609.25 1683.52 1614.03 1680.69 C 1619.2 1678.96 1622.39 1676.65 1627 1673.77 C 1627.19 1676.67 1623.25 1680.4 1622.48 1683.74 C 1619.25 1687.15 1618.16 1687.88 1614.24 1690.52 L 1613.66 1688.91 C 1611.21 1690.12 1610.48 1690.51 1607.76 1690.63 L 1608.15 1690.14 C 1604.1 1691.72 1601.23 1694.18 1597.96 1695.41 C 1588.84 1695.24 1579.15 1701.41 1569.74 1703.58 C 1560.71 1705.67 1555.88 1703.21 1548.33 1705.53 C 1545.48 1706.41 1545.77 1707.01 1542.48 1705.96 L 1542.62 1705.5 C 1549.06 1700.8 1558.75 1705.59 1562.9 1693.1 C 1558.24 1697.71 1548.8 1704.91 1542.06 1703.25 L 1541.41 1702.29 C 1545.12 1701.34 1546.54 1701.76 1548.25 1699.39 C 1546.18 1698.32 1546.26 1698.36 1543.94 1697.97 L 1544.32 1697.59 L 1546.35 1697.7 L 1547.11 1696.32 L 1549.07 1695.61 C 1555.86 1692.45 1555.96 1689.03 1557.98 1682.42 C 1552.32 1663.44 1522.8 1614.95 1511.68 1596.53 C 1442.71 1484.75 1367.91 1376.67 1287.59 1272.75 L 1200.26 1160.12 C 1197.66 1158.4 1182.37 1137.78 1179.56 1134.14 C 1174.81 1129 1169.61 1121.89 1165.24 1116.22 C 1162.34 1114.09 1140.79 1086.09 1137.68 1081.76 C 1123.83 1065.04 1110.09 1048.23 1096.47 1031.31 C 1094.58 1027.87 1093.13 1025.96 1090.8 1022.77 C 1088.94 1020.03 1085.36 1015.82 1085.5 1013.12 C 1087.24 1013.07 1087.78 1013.02 1089.59 1012.82 L 1090.02 1009.44 C 1090.84 1008.13 1090.52 1008.91 1090.74 1006.99 C 1081.93 1005.87 1074.31 999.924 1076.97 990.466 C 1081.25 991.858 1083.75 993.113 1087.34 995.974 C 1088.86 996.243 1092.48 996.776 1093.79 997.158 z"/>
<path transform="translate(0,0)" fill="url(#Gradient13)" d="M 1264.76 1215.15 L 1267.99 1213.82 C 1276.3 1218.68 1278.57 1229.38 1286.76 1231.87 C 1290.74 1235.8 1299.67 1248.25 1303.45 1253.3 C 1316.03 1270.19 1328.51 1287.16 1340.87 1304.2 C 1402.41 1387.84 1458.11 1467.26 1512.43 1556.01 C 1527.54 1581.22 1542.02 1606.79 1555.87 1632.72 C 1562.67 1645.57 1569.74 1660 1577.04 1672.61 C 1579.1 1676.18 1585.29 1678.82 1589.04 1680.53 C 1592.8 1678.88 1596.55 1677.28 1600.24 1675.45 L 1598.07 1680.5 C 1592.03 1681.48 1590.24 1681.96 1583.99 1680.99 L 1583.37 1683.52 L 1581.88 1681.15 C 1583.9 1685.49 1584.91 1686.53 1587.93 1690.38 L 1594.13 1691.2 C 1572.47 1697.82 1561.37 1665.75 1553.37 1650.53 C 1546.91 1638.44 1540.27 1626.45 1533.44 1614.56 C 1514.12 1580.8 1492.66 1548.34 1472.8 1515.22 C 1465.12 1508.59 1437.48 1465.36 1431.75 1455.93 C 1426.44 1447.17 1425.86 1445.65 1423.29 1436.08 C 1419.64 1431.01 1416.37 1425.64 1413.05 1420.33 C 1374.93 1359.26 1330.7 1302.23 1287.39 1244.82 C 1280.3 1235.43 1272.88 1223.22 1264.76 1215.15 z"/>
<path transform="translate(0,0)" fill="rgb(220,99,17)" d="M 1423.29 1436.08 C 1434.16 1446.32 1469.49 1503.45 1472.8 1515.22 C 1465.12 1508.59 1437.48 1465.36 1431.75 1455.93 C 1426.44 1447.17 1425.86 1445.65 1423.29 1436.08 z"/>
<path transform="translate(0,0)" fill="rgb(236,131,51)" d="M 1200.26 1160.12 C 1204.36 1160.47 1204.19 1160.76 1207.08 1164.16 C 1243.99 1207.52 1278.46 1252.67 1312.79 1298.09 C 1324.51 1313.59 1335.43 1330.06 1347.47 1345.4 C 1359.15 1360.86 1369.53 1378.95 1383.5 1392.53 C 1389.37 1398.24 1403.87 1419.64 1405.57 1426.94 C 1413.88 1434.11 1422.97 1448.21 1431.75 1455.93 C 1437.48 1465.36 1465.12 1508.59 1472.8 1515.22 C 1492.66 1548.34 1514.12 1580.8 1533.44 1614.56 C 1540.27 1626.45 1546.91 1638.44 1553.37 1650.53 C 1561.37 1665.75 1572.47 1697.82 1594.13 1691.2 L 1597.01 1690.13 C 1601.93 1688.29 1609.25 1683.52 1614.03 1680.69 C 1619.2 1678.96 1622.39 1676.65 1627 1673.77 C 1627.19 1676.67 1623.25 1680.4 1622.48 1683.74 C 1619.25 1687.15 1618.16 1687.88 1614.24 1690.52 L 1613.66 1688.91 C 1611.21 1690.12 1610.48 1690.51 1607.76 1690.63 L 1608.15 1690.14 C 1604.1 1691.72 1601.23 1694.18 1597.96 1695.41 C 1588.84 1695.24 1579.15 1701.41 1569.74 1703.58 C 1560.71 1705.67 1555.88 1703.21 1548.33 1705.53 C 1545.48 1706.41 1545.77 1707.01 1542.48 1705.96 L 1542.62 1705.5 C 1549.06 1700.8 1558.75 1705.59 1562.9 1693.1 C 1558.24 1697.71 1548.8 1704.91 1542.06 1703.25 L 1541.41 1702.29 C 1545.12 1701.34 1546.54 1701.76 1548.25 1699.39 C 1546.18 1698.32 1546.26 1698.36 1543.94 1697.97 L 1544.32 1697.59 L 1546.35 1697.7 L 1547.11 1696.32 L 1549.07 1695.61 C 1555.86 1692.45 1555.96 1689.03 1557.98 1682.42 C 1552.32 1663.44 1522.8 1614.95 1511.68 1596.53 C 1442.71 1484.75 1367.91 1376.67 1287.59 1272.75 L 1200.26 1160.12 z"/>
<path transform="translate(0,0)" fill="url(#Gradient12)" d="M 1405.57 1426.94 C 1413.88 1434.11 1422.97 1448.21 1431.75 1455.93 C 1437.48 1465.36 1465.12 1508.59 1472.8 1515.22 C 1492.66 1548.34 1514.12 1580.8 1533.44 1614.56 C 1540.27 1626.45 1546.91 1638.44 1553.37 1650.53 C 1561.37 1665.75 1572.47 1697.82 1594.13 1691.2 L 1597.01 1690.13 C 1601.93 1688.29 1609.25 1683.52 1614.03 1680.69 C 1619.2 1678.96 1622.39 1676.65 1627 1673.77 C 1627.19 1676.67 1623.25 1680.4 1622.48 1683.74 C 1619.25 1687.15 1618.16 1687.88 1614.24 1690.52 L 1613.66 1688.91 C 1611.21 1690.12 1610.48 1690.51 1607.76 1690.63 L 1608.15 1690.14 C 1604.1 1691.72 1601.23 1694.18 1597.96 1695.41 C 1588.84 1695.24 1579.15 1701.41 1569.74 1703.58 C 1560.71 1705.67 1555.88 1703.21 1548.33 1705.53 C 1545.48 1706.41 1545.77 1707.01 1542.48 1705.96 L 1542.62 1705.5 C 1549.06 1700.8 1558.75 1705.59 1562.9 1693.1 C 1563.06 1690.36 1563.39 1685.51 1562.38 1683 C 1548.44 1648.34 1526.69 1614.49 1507.54 1582.9 C 1483.66 1543.51 1459.95 1506.93 1434.41 1468.83 C 1427.93 1459.18 1409.47 1436.35 1405.57 1426.94 z"/>
<path transform="translate(0,0)" fill="rgb(227,123,41)" d="M 1145.17 1056.11 C 1151.58 1061.84 1163.63 1077.57 1169.88 1085.12 C 1191.14 1110.8 1212.08 1136.77 1232.67 1163 L 1268.93 1208.61 C 1273.46 1214.34 1283.42 1226.36 1286.76 1231.87 C 1278.57 1229.38 1276.3 1218.68 1267.99 1213.82 L 1264.76 1215.15 C 1233.6 1180.02 1207.25 1140.11 1175.88 1105.02 C 1168.72 1097.01 1161.2 1085.36 1154.9 1076.46 L 1156.5 1073.57 C 1154.9 1066.88 1147.67 1064.19 1145.17 1056.11 z"/>
<path transform="translate(0,0)" fill="url(#Gradient11)" d="M 1090.02 1009.44 C 1090.92 1012.29 1091.12 1013.79 1093.2 1015.96 C 1096.43 1023.89 1121.14 1048.57 1127.22 1056.98 C 1133.79 1066.07 1142.75 1076.4 1148.96 1085.89 C 1154.96 1095.06 1176.77 1113.53 1175.48 1124.19 C 1171.62 1119 1171.18 1117.47 1165.24 1116.22 C 1162.34 1114.09 1140.79 1086.09 1137.68 1081.76 C 1123.83 1065.04 1110.09 1048.23 1096.47 1031.31 C 1094.58 1027.87 1093.13 1025.96 1090.8 1022.77 C 1088.94 1020.03 1085.36 1015.82 1085.5 1013.12 C 1087.24 1013.07 1087.78 1013.02 1089.59 1012.82 L 1090.02 1009.44 z"/>
<path transform="translate(0,0)" fill="rgb(236,131,51)" d="M 1090.02 1009.44 C 1090.92 1012.29 1091.12 1013.79 1093.2 1015.96 L 1091.62 1018.04 C 1096.39 1030.44 1136.17 1070.19 1139.08 1079.99 L 1137.68 1081.76 C 1123.83 1065.04 1110.09 1048.23 1096.47 1031.31 C 1094.58 1027.87 1093.13 1025.96 1090.8 1022.77 C 1088.94 1020.03 1085.36 1015.82 1085.5 1013.12 C 1087.24 1013.07 1087.78 1013.02 1089.59 1012.82 L 1090.02 1009.44 z"/>
<path transform="translate(0,0)" fill="rgb(236,131,51)" d="M 1093.79 997.158 C 1096.59 998.955 1103.71 1003.73 1106.52 1003.97 C 1118.78 1005.01 1119.53 982.431 1127.35 976.858 C 1125.39 989.756 1118.13 1003.32 1108.49 1012.15 C 1113.92 1018.37 1142.85 1051.08 1145.17 1056.11 C 1147.67 1064.19 1154.9 1066.88 1156.5 1073.57 L 1154.9 1076.46 C 1143.75 1068 1109.16 1023.36 1096.43 1009.77 C 1095.49 1004.28 1097.2 1010.09 1099.54 1006.46 C 1094.32 1002.62 1091.97 1000.42 1087.34 995.974 C 1088.86 996.243 1092.48 996.776 1093.79 997.158 z"/>
<path transform="translate(0,0)" fill="rgb(209,100,32)" d="M 1165.24 1116.22 C 1171.18 1117.47 1171.62 1119 1175.48 1124.19 C 1178.03 1126.94 1179.41 1130.37 1181.06 1133.78 L 1179.56 1134.14 C 1174.81 1129 1169.61 1121.89 1165.24 1116.22 z"/>
<path transform="translate(0,0)" fill="rgb(220,99,17)" d="M 640.433 1406.75 C 632.969 1408.33 626.416 1407.18 621.26 1401.1 C 617.977 1397.2 616.427 1392.13 616.972 1387.06 C 617.494 1382.23 620.323 1377.17 624.295 1374.61 C 647.293 1359.76 651.337 1400.13 674.896 1403.94 C 680.539 1401.4 681.155 1400.62 685.661 1396.15 C 687.212 1399.59 687.29 1399.35 686.345 1403.81 L 693.03 1400.64 C 690.644 1405.29 689.303 1407.8 687.63 1412.86 C 697.543 1454.36 878.999 1552.87 921.482 1569.53 C 927.397 1571.85 943.418 1578.22 947.629 1581.44 C 956.474 1581.08 961.169 1578.71 967.867 1573.33 C 969.614 1577.18 969.337 1575.15 968.117 1579.7 C 965.388 1582.47 964.146 1582.54 960.468 1583.68 L 959.982 1585.78 C 962.408 1588.57 968.945 1591.3 972.579 1593.25 C 976.93 1591.12 975.407 1592.72 977.341 1588.31 C 983.205 1599.49 995.867 1602.1 1007.15 1606.27 C 1026 1613.24 1045.29 1619.48 1064.47 1625.46 C 1147.61 1652.15 1232.71 1672.32 1318.98 1685.77 C 1329.29 1687.36 1354.09 1692.59 1363.14 1689.08 C 1366.61 1692.27 1366.47 1691.96 1371.12 1689.63 C 1377.01 1688.89 1375.28 1687.56 1382 1688.64 C 1394.4 1697.23 1409.61 1696.28 1424.35 1697 C 1465.91 1698.88 1507.55 1698.41 1549.07 1695.61 L 1547.11 1696.32 L 1546.35 1697.7 L 1544.32 1697.59 L 1543.94 1697.97 C 1546.26 1698.36 1546.18 1698.32 1548.25 1699.39 C 1546.54 1701.76 1545.12 1701.34 1541.41 1702.29 L 1542.06 1703.25 C 1548.8 1704.91 1558.24 1697.71 1562.9 1693.1 C 1558.75 1705.59 1549.06 1700.8 1542.62 1705.5 L 1542.48 1705.96 C 1545.77 1707.01 1545.48 1706.41 1548.33 1705.53 C 1555.88 1703.21 1560.71 1705.67 1569.74 1703.58 C 1579.15 1701.41 1588.84 1695.24 1597.96 1695.41 C 1601.23 1694.18 1604.1 1691.72 1608.15 1690.14 L 1607.76 1690.63 C 1610.48 1690.51 1611.21 1690.12 1613.66 1688.91 L 1614.24 1690.52 C 1598.53 1703.45 1584.51 1714.14 1563.6 1712.14 C 1561.65 1711.95 1559.71 1711.74 1557.76 1711.52 C 1538.64 1712.41 1519.2 1714.47 1499.72 1715.38 C 1464.17 1716.83 1428.57 1716.37 1393.08 1713.99 C 1372.17 1712.45 1350.74 1709.49 1330.01 1706.37 C 1189.33 1685.24 1048.36 1647.16 918.862 1587.78 C 907.311 1582.49 894.308 1576.95 883.371 1570.58 C 876.982 1568.04 846.567 1552.66 841.828 1548.64 C 834.056 1545.08 824.189 1539.36 817.068 1534.58 C 804.121 1527.96 785.177 1515.47 772.958 1507.51 C 726.3 1477.08 683.38 1443.75 643.794 1404.56 L 640.433 1406.75 z"/>
<path transform="translate(0,0)" fill="rgb(236,131,51)" d="M 640.433 1406.75 C 632.969 1408.33 626.416 1407.18 621.26 1401.1 C 617.977 1397.2 616.427 1392.13 616.972 1387.06 C 617.494 1382.23 620.323 1377.17 624.295 1374.61 C 647.293 1359.76 651.337 1400.13 674.896 1403.94 L 671.623 1404.2 C 671.203 1404.81 670.349 1405.95 670.073 1406.57 C 662.34 1406.71 658.095 1401.25 653.264 1395.99 C 646.274 1394.12 640.662 1389.55 635.106 1388.56 C 631.958 1389.17 628.99 1389.44 626.275 1391.05 C 633.907 1393.23 635.307 1393.94 640.271 1399.94 L 641.252 1401.11 L 643.794 1404.56 L 640.433 1406.75 z"/>
<path transform="translate(0,0)" fill="rgb(171,52,2)" d="M 640.433 1406.75 C 636.548 1404.1 625.706 1401.01 625.667 1397.6 C 625.614 1392.94 622.958 1392.47 621.834 1387.95 C 624.155 1388.17 624.129 1388.94 626.275 1391.05 C 633.907 1393.23 635.307 1393.94 640.271 1399.94 L 641.252 1401.11 L 643.794 1404.56 L 640.433 1406.75 z"/>
<path transform="translate(0,0)" fill="rgb(209,100,32)" d="M 635.106 1388.56 C 636.436 1384.08 638.24 1382.89 638.098 1379.54 L 635.48 1375.43 L 635.867 1374.4 C 638.958 1375.43 652.566 1393.47 653.264 1395.99 C 646.274 1394.12 640.662 1389.55 635.106 1388.56 z"/>
<path transform="translate(0,0)" fill="rgb(251,183,89)" d="M 627.622 1376.35 C 631.193 1376.87 629.886 1376.03 631.929 1378.51 C 631.681 1381.47 630.062 1383.09 628.284 1385.56 C 626.042 1385.02 626.345 1384.93 624.261 1383.72 C 624.143 1380.37 625.395 1379.82 627.622 1376.35 z"/>
<path transform="translate(0,0)" fill="rgb(239,149,63)" d="M 641.252 1401.11 C 642.413 1401.31 643.574 1401.51 644.735 1401.71 C 657.774 1412.46 669.086 1425.12 681.984 1436.03 C 710.296 1460.02 739.972 1482.34 770.864 1502.9 C 780.405 1509.25 809.756 1526.31 816.555 1531.84 L 817.068 1534.58 C 804.121 1527.96 785.177 1515.47 772.958 1507.51 C 726.3 1477.08 683.38 1443.75 643.794 1404.56 L 641.252 1401.11 z"/>
<path transform="translate(0,0)" fill="url(#Gradient10)" d="M 1597.96 1695.41 C 1601.23 1694.18 1604.1 1691.72 1608.15 1690.14 L 1607.76 1690.63 C 1610.48 1690.51 1611.21 1690.12 1613.66 1688.91 L 1614.24 1690.52 C 1598.53 1703.45 1584.51 1714.14 1563.6 1712.14 C 1561.65 1711.95 1559.71 1711.74 1557.76 1711.52 C 1556.13 1710.55 1551.64 1710.46 1549.44 1710.27 C 1554.1 1708.6 1566.56 1711.87 1570.22 1709.66 L 1569.94 1708.71 C 1565.98 1707.13 1560.36 1707.57 1555.91 1707.55 C 1563.07 1705.18 1561.23 1706.86 1567.47 1706.15 C 1583.62 1704.29 1585.47 1704.76 1597.96 1695.41 z"/>
<path transform="translate(0,0)" fill="rgb(190,66,7)" d="M 685.661 1396.15 C 687.212 1399.59 687.29 1399.35 686.345 1403.81 L 693.03 1400.64 C 690.644 1405.29 689.303 1407.8 687.63 1412.86 C 686.413 1414.29 684.826 1416.98 683.755 1418.66 L 681.916 1419.01 C 678.001 1417.73 674.917 1412.17 673.27 1408.45 L 670.073 1406.57 C 670.349 1405.95 671.203 1404.81 671.623 1404.2 L 674.896 1403.94 C 680.539 1401.4 681.155 1400.62 685.661 1396.15 z"/>
<path transform="translate(0,0)" fill="rgb(227,123,41)" d="M 685.661 1396.15 C 687.212 1399.59 687.29 1399.35 686.345 1403.81 C 681.665 1407.33 679.02 1407.34 673.27 1408.45 L 670.073 1406.57 C 670.349 1405.95 671.203 1404.81 671.623 1404.2 L 674.896 1403.94 C 680.539 1401.4 681.155 1400.62 685.661 1396.15 z"/>
<path transform="translate(0,0)" fill="rgb(227,123,41)" d="M 967.867 1573.33 C 969.614 1577.18 969.337 1575.15 968.117 1579.7 C 965.388 1582.47 964.146 1582.54 960.468 1583.68 L 959.982 1585.78 C 962.408 1588.57 968.945 1591.3 972.579 1593.25 C 974.337 1594.38 974.825 1594.94 976.391 1596.34 L 975.91 1596.8 C 965.336 1589.2 957.671 1587.97 944.877 1584.86 C 942.603 1584.3 944.594 1585.64 942.442 1583.87 C 944.706 1583.26 944.927 1583.27 947.177 1583.6 L 949.011 1583.89 L 950.334 1583.06 L 951.851 1584.46 L 951.758 1583.97 L 948.171 1582.71 L 947.629 1581.44 C 956.474 1581.08 961.169 1578.71 967.867 1573.33 z"/>
<path transform="translate(0,0)" fill="rgb(209,100,32)" d="M 841.828 1548.64 C 850.206 1548.51 875.151 1561.58 882.2 1567.27 L 883.371 1570.58 C 876.982 1568.04 846.567 1552.66 841.828 1548.64 z"/>
<path transform="translate(0,0)" fill="url(#Gradient9)" d="M 1061.86 894.334 C 1087.31 893.419 1114.08 918.409 1123.51 941.009 C 1127.15 950.898 1130.61 966.778 1127.35 976.858 C 1119.53 982.431 1118.78 1005.01 1106.52 1003.97 C 1103.71 1003.73 1096.59 998.955 1093.79 997.158 C 1092.48 996.776 1088.86 996.243 1087.34 995.974 C 1083.75 993.113 1081.25 991.858 1076.97 990.466 C 1074.31 999.924 1081.93 1005.87 1090.74 1006.99 C 1090.52 1008.91 1090.84 1008.13 1090.02 1009.44 L 1089.59 1012.82 C 1087.78 1013.02 1087.24 1013.07 1085.5 1013.12 C 1085.36 1015.82 1088.94 1020.03 1090.8 1022.77 C 1093.13 1025.96 1094.58 1027.87 1096.47 1031.31 L 1093.18 1031.96 C 1081.56 1036.1 1074.46 1037.46 1062.2 1039.05 C 1054.97 1039.58 1049.41 1039.05 1042.43 1037.42 C 1020.36 1034.39 1001.78 1019.92 992.217 1000.08 C 989.936 996.933 987.716 989.764 986.766 986.09 L 985.921 985.628 L 986.356 983.665 L 981.829 979.305 C 978.511 979.521 978.427 978.939 975.139 977.368 C 982.328 976.175 983.52 977.261 986.099 970.551 L 986.551 969.659 L 989.201 969.043 C 988.812 964.848 988.081 964.516 985.118 961.162 L 986.639 959.901 C 988.285 959.692 988.897 959.642 990.513 959.088 L 992.142 954.798 L 994.553 954.06 C 996.818 954.833 996.833 954.801 999.157 955.231 L 1001.92 952.608 L 999.074 944.927 L 998.289 939.958 L 999.213 936.472 C 1000.29 931.368 1000.42 931.063 998.821 926.366 C 1003.54 923.166 1005.43 919.872 1008.8 915.302 L 1010.88 912.479 L 1012.06 911.986 C 1017.76 905.455 1030.73 901.271 1039.32 900.866 C 1041.73 899.515 1044.09 897.927 1046.41 896.426 C 1054.48 894.261 1058.08 897.335 1061.86 894.334 z"/>
<path transform="translate(0,0)" fill="rgb(171,52,2)" d="M 1001.92 952.608 L 1005.37 958.114 C 1006.77 961.848 1005.59 960.531 1008.65 962.495 L 1014.4 962.897 C 1015.38 964.144 1015.68 964.457 1016.47 965.833 C 1019.79 969.675 1031.24 971.581 1036.35 972.297 C 1035.2 976.502 1035.93 975.005 1032.17 978.163 L 1031.49 980.432 L 1033.68 982.028 L 1034.3 986.539 C 1040.84 977.792 1048.71 975.754 1059.56 977.875 C 1067.29 982.576 1080.09 977.63 1085.66 985.198 C 1083.67 985.741 1084.43 985.886 1082.38 985.122 C 1074.67 982.245 1048.36 980.609 1041.32 983.154 L 1041.41 984.562 C 1053.73 989.918 1072.09 983.549 1081.6 990.966 L 1076.97 990.466 C 1074.31 999.924 1081.93 1005.87 1090.74 1006.99 C 1090.52 1008.91 1090.84 1008.13 1090.02 1009.44 L 1089.59 1012.82 C 1087.78 1013.02 1087.24 1013.07 1085.5 1013.12 C 1085.36 1015.82 1088.94 1020.03 1090.8 1022.77 C 1093.13 1025.96 1094.58 1027.87 1096.47 1031.31 L 1093.18 1031.96 C 1081.56 1036.1 1074.46 1037.46 1062.2 1039.05 C 1054.97 1039.58 1049.41 1039.05 1042.43 1037.42 C 1020.36 1034.39 1001.78 1019.92 992.217 1000.08 C 989.936 996.933 987.716 989.764 986.766 986.09 L 985.921 985.628 L 986.356 983.665 L 981.829 979.305 C 978.511 979.521 978.427 978.939 975.139 977.368 C 982.328 976.175 983.52 977.261 986.099 970.551 L 986.551 969.659 L 989.201 969.043 C 988.812 964.848 988.081 964.516 985.118 961.162 L 986.639 959.901 C 988.285 959.692 988.897 959.642 990.513 959.088 L 992.142 954.798 L 994.553 954.06 C 996.818 954.833 996.833 954.801 999.157 955.231 L 1001.92 952.608 z"/>
<path transform="translate(0,0)" fill="rgb(190,66,7)" d="M 985.118 961.162 L 986.639 959.901 C 988.285 959.692 988.897 959.642 990.513 959.088 C 990.806 962.445 990.807 965.86 992.125 968.895 L 992.983 969.169 C 997.633 970.615 1002.59 970.501 1005.49 972.613 L 1006.63 974.89 L 1008.15 975.876 L 1011.76 979.58 L 1013.07 981.29 C 1016.13 983.872 1021.22 998.128 1023.8 1002.88 C 1026.12 1009.2 1025.52 1011.97 1030.53 1015.66 C 1037.81 1019.12 1039.06 1019 1046.46 1020.8 C 1056.83 1023.34 1073.95 1013.03 1080.75 1018.46 C 1081.45 1020.9 1081.61 1019.76 1080.82 1021.94 L 1082.38 1023.9 C 1085.7 1024.13 1087.64 1024.29 1090.8 1022.77 C 1093.13 1025.96 1094.58 1027.87 1096.47 1031.31 L 1093.18 1031.96 C 1081.56 1036.1 1074.46 1037.46 1062.2 1039.05 C 1054.97 1039.58 1049.41 1039.05 1042.43 1037.42 C 1020.36 1034.39 1001.78 1019.92 992.217 1000.08 C 989.936 996.933 987.716 989.764 986.766 986.09 L 985.921 985.628 L 986.356 983.665 L 981.829 979.305 C 978.511 979.521 978.427 978.939 975.139 977.368 C 982.328 976.175 983.52 977.261 986.099 970.551 L 986.551 969.659 L 989.201 969.043 C 988.812 964.848 988.081 964.516 985.118 961.162 z"/>
<path transform="translate(0,0)" fill="rgb(209,100,32)" d="M 986.766 986.09 C 991.627 985.542 990.54 986.509 992.717 990.358 C 999.268 1001.94 1012.3 1012.48 1024.63 1015.98 C 1031.53 1018.36 1038.3 1020.31 1042.18 1026.66 L 1040.13 1028.01 L 1039.34 1029.16 C 1041.52 1030.47 1042.45 1031.22 1044.89 1031.88 L 1041.89 1034.13 C 1041.62 1036.57 1041.27 1035.53 1042.43 1037.42 C 1020.36 1034.39 1001.78 1019.92 992.217 1000.08 C 989.936 996.933 987.716 989.764 986.766 986.09 z"/>
<path transform="translate(0,0)" fill="url(#Gradient8)" d="M 992.217 1000.08 C 998.862 999.681 1002.1 1007.87 1007.24 1013.57 C 1016.97 1024.34 1029.1 1023.55 1039.34 1029.16 C 1041.52 1030.47 1042.45 1031.22 1044.89 1031.88 L 1041.89 1034.13 C 1041.62 1036.57 1041.27 1035.53 1042.43 1037.42 C 1020.36 1034.39 1001.78 1019.92 992.217 1000.08 z"/>
<path transform="translate(0,0)" fill="rgb(171,52,2)" d="M 1040.13 1028.01 C 1043.55 1028.06 1047.45 1029.24 1051.09 1029.48 C 1061.71 1030.2 1071.39 1026.21 1080.82 1021.94 L 1082.38 1023.9 C 1085.7 1024.13 1087.64 1024.29 1090.8 1022.77 C 1093.13 1025.96 1094.58 1027.87 1096.47 1031.31 L 1093.18 1031.96 C 1081.56 1036.1 1074.46 1037.46 1062.2 1039.05 C 1054.97 1039.58 1049.41 1039.05 1042.43 1037.42 C 1041.27 1035.53 1041.62 1036.57 1041.89 1034.13 L 1044.89 1031.88 C 1042.45 1031.22 1041.52 1030.47 1039.34 1029.16 L 1040.13 1028.01 z"/>
<path transform="translate(0,0)" fill="rgb(220,99,17)" d="M 1056 1033.76 C 1069.75 1034.26 1074.93 1031.3 1088.18 1029.74 C 1090.15 1030.62 1091.82 1031.36 1093.18 1031.96 C 1081.56 1036.1 1074.46 1037.46 1062.2 1039.05 C 1060.49 1037.35 1057.9 1035.35 1056 1033.76 z"/>
<path transform="translate(0,0)" fill="rgb(209,100,32)" d="M 1044.89 1031.88 L 1056 1033.76 C 1057.9 1035.35 1060.49 1037.35 1062.2 1039.05 C 1054.97 1039.58 1049.41 1039.05 1042.43 1037.42 C 1041.27 1035.53 1041.62 1036.57 1041.89 1034.13 L 1044.89 1031.88 z"/>
<path transform="translate(0,0)" fill="rgb(220,99,17)" d="M 1006.63 974.89 L 1008.15 975.876 L 1011.76 979.58 L 1013.07 981.29 C 1016.13 983.872 1021.22 998.128 1023.8 1002.88 C 1018.33 1004.78 1014.9 1007.41 1010.02 1003.17 C 998.758 993.383 999.514 985.22 1006.63 974.89 z"/>
<path transform="translate(0,0)" fill="rgb(209,100,32)" d="M 1013.07 981.29 C 1013.64 985.251 1014.73 988.376 1011.13 990.882 L 1008.86 990.147 C 1004.77 985.809 1004.12 980.527 1008.15 975.876 L 1011.76 979.58 L 1013.07 981.29 z"/>
<path transform="translate(0,0)" fill="rgb(171,52,2)" d="M 985.118 961.162 L 986.639 959.901 C 988.285 959.692 988.897 959.642 990.513 959.088 C 990.806 962.445 990.807 965.86 992.125 968.895 L 993.338 972.628 C 994.913 973.163 996.334 973.623 997.931 974.087 C 998.896 977.232 998.584 977.741 998.198 980.98 L 996.91 982.385 C 995.52 981.555 994.113 980.753 992.69 979.981 C 991.499 982.136 991.691 982.026 989.677 983.568 L 986.356 983.665 L 981.829 979.305 C 978.511 979.521 978.427 978.939 975.139 977.368 C 982.328 976.175 983.52 977.261 986.099 970.551 L 986.551 969.659 L 989.201 969.043 C 988.812 964.848 988.081 964.516 985.118 961.162 z"/>
<path transform="translate(0,0)" fill="rgb(227,123,41)" d="M 986.099 970.551 L 986.551 969.659 L 989.201 969.043 C 988.565 973.705 989.024 977.074 985.964 979.433 L 981.829 979.305 C 978.511 979.521 978.427 978.939 975.139 977.368 C 982.328 976.175 983.52 977.261 986.099 970.551 z"/>
<path transform="translate(0,0)" fill="rgb(209,100,32)" d="M 1001.92 952.608 L 1005.37 958.114 C 1006.77 961.848 1005.59 960.531 1008.65 962.495 L 1014.4 962.897 C 1015.38 964.144 1015.68 964.457 1016.47 965.833 C 1019.79 969.675 1031.24 971.581 1036.35 972.297 C 1035.2 976.502 1035.93 975.005 1032.17 978.163 C 1029.7 974.229 1017.65 967.897 1012.72 966.837 L 1011.56 967.733 C 1015.31 975.896 1022.03 972.517 1023.92 976.489 L 1022.98 977.459 C 1018.97 977.189 1017.89 976.222 1014.23 974.235 L 1014.11 977.694 L 1011.76 979.58 L 1008.15 975.876 L 1006.63 974.89 L 1005.49 972.613 C 1002.59 970.501 997.633 970.615 992.983 969.169 L 992.125 968.895 C 990.807 965.86 990.806 962.445 990.513 959.088 L 992.142 954.798 L 994.553 954.06 C 996.818 954.833 996.833 954.801 999.157 955.231 L 1001.92 952.608 z"/>
<path transform="translate(0,0)" fill="url(#Gradient7)" d="M 1042.93 942.015 C 1043.04 939.55 1042.53 940.502 1043.85 938.838 C 1051.23 937.912 1067.68 936.801 1074.11 940.514 C 1078.06 952.575 1080.23 959.258 1082.49 971.827 C 1082.33 976.613 1083.14 976.222 1080.75 979.142 C 1073.36 981.566 1068.57 978.138 1059.56 977.875 C 1048.71 975.754 1040.84 977.792 1034.3 986.539 L 1033.68 982.028 L 1031.49 980.432 L 1032.17 978.163 C 1035.93 975.005 1035.2 976.502 1036.35 972.297 L 1036.84 966.832 C 1037.08 964.216 1037.67 960.764 1038.05 958.092 C 1039.5 952.451 1041.48 948.224 1042.93 942.015 z"/>
<path transform="translate(0,0)" fill="rgb(239,149,63)" d="M 1013.94 924.499 C 1020.14 925.813 1027.21 927.301 1028.6 934.541 L 1030.27 935.772 C 1036.63 936.354 1038.39 937.519 1042.93 942.015 C 1041.48 948.224 1039.5 952.451 1038.05 958.092 C 1037.67 960.764 1037.08 964.216 1036.84 966.832 L 1036.35 972.297 C 1031.24 971.581 1019.79 969.675 1016.47 965.833 C 1015.68 964.457 1015.38 964.144 1014.4 962.897 L 1008.65 962.495 C 1005.59 960.531 1006.77 961.848 1005.37 958.114 L 1001.92 952.608 L 999.074 944.927 C 1003.52 941.559 1005.01 938.485 1008.02 933.808 L 1007.96 932.652 C 1009.49 931.018 1012.52 926.494 1013.94 924.499 z"/>
<path transform="translate(0,0)" fill="rgb(239,149,63)" d="M 1013.94 924.499 C 1020.14 925.813 1027.21 927.301 1028.6 934.541 C 1023.42 939.028 1023.2 939.589 1019.52 945.236 L 1017.61 948.105 C 1010.53 949.203 1011.41 952.28 1005.22 952.194 C 1005.28 954.027 1005.43 956.326 1005.37 958.114 L 1001.92 952.608 L 999.074 944.927 C 1003.52 941.559 1005.01 938.485 1008.02 933.808 L 1007.96 932.652 C 1009.49 931.018 1012.52 926.494 1013.94 924.499 z"/>
<path transform="translate(0,0)" fill="rgb(249,169,68)" d="M 1013.94 924.499 C 1020.14 925.813 1027.21 927.301 1028.6 934.541 C 1023.42 939.028 1023.2 939.589 1019.52 945.236 L 1017.61 948.105 C 1016.48 941.445 1013.93 930.557 1013.94 924.499 z"/>
<path transform="translate(0,0)" fill="rgb(227,123,41)" d="M 1008.02 933.808 C 1009.06 947.311 1008.26 941.761 1005.22 952.194 C 1005.28 954.027 1005.43 956.326 1005.37 958.114 L 1001.92 952.608 L 999.074 944.927 C 1003.52 941.559 1005.01 938.485 1008.02 933.808 z"/>
<path transform="translate(0,0)" fill="rgb(251,183,89)" d="M 1030.27 935.772 C 1036.63 936.354 1038.39 937.519 1042.93 942.015 C 1041.48 948.224 1039.5 952.451 1038.05 958.092 C 1019.88 960.413 1029.15 955.386 1022.3 946.451 C 1024.86 941.743 1026.81 939.786 1030.27 935.772 z"/>
<path transform="translate(0,0)" fill="rgb(249,169,68)" d="M 1016.22 960.51 C 1018.38 954.169 1019.06 952.409 1022.3 946.451 C 1029.15 955.386 1019.88 960.413 1038.05 958.092 C 1037.67 960.764 1037.08 964.216 1036.84 966.832 C 1030.26 967.712 1021.42 964.517 1016.22 960.51 z"/>
<path transform="translate(0,0)" fill="url(#Gradient6)" d="M 1094.95 911.049 C 1115.12 922.483 1111.29 934.976 1123.51 941.009 C 1127.15 950.898 1130.61 966.778 1127.35 976.858 C 1119.53 982.431 1118.78 1005.01 1106.52 1003.97 C 1103.71 1003.73 1096.59 998.955 1093.79 997.158 C 1097.67 995.217 1100.6 995.615 1105.89 993.02 C 1111.09 986.261 1115.76 962.305 1116.45 953.112 C 1118.29 928.509 1107.53 925.727 1095.64 911.863 L 1094.95 911.049 z"/>
<path transform="translate(0,0)" fill="rgb(220,99,17)" d="M 1012.06 911.986 C 1017.76 905.455 1030.73 901.271 1039.32 900.866 L 1041.72 902.02 C 1047.55 901.918 1052.27 901.793 1057.77 904.334 L 1062.78 903.753 C 1065.59 904.251 1067.44 904.656 1070.33 904.698 L 1071.11 905.231 C 1074.32 907.386 1074.58 907.547 1078.18 908.733 L 1075.01 905.182 C 1078.58 905.023 1085.65 908.553 1088.54 910.933 L 1088.75 912.558 C 1086.26 913.885 1085.81 913.617 1082.91 913.75 C 1074.64 907.687 1071.7 908.025 1062.64 912.407 C 1052.4 912.862 1050.9 916.184 1040.37 909.941 C 1031.82 902.028 1019.24 912.398 1015.06 921.012 C 1014.72 922.243 1014.5 923.398 1013.94 924.499 C 1012.52 926.494 1009.49 931.018 1007.96 932.652 L 1008.02 933.808 C 1005.01 938.485 1003.52 941.559 999.074 944.927 L 998.289 939.958 L 999.213 936.472 C 1000.29 931.368 1000.42 931.063 998.821 926.366 C 1003.54 923.166 1005.43 919.872 1008.8 915.302 L 1010.88 912.479 L 1012.06 911.986 z"/>
<path transform="translate(0,0)" fill="rgb(209,100,32)" d="M 1012.06 911.986 C 1015.07 917.317 1008.94 926.284 1007.96 932.652 L 1008.02 933.808 C 1005.01 938.485 1003.52 941.559 999.074 944.927 L 998.289 939.958 L 999.213 936.472 C 1000.29 931.368 1000.42 931.063 998.821 926.366 C 1003.54 923.166 1005.43 919.872 1008.8 915.302 L 1010.88 912.479 L 1012.06 911.986 z"/>
<path transform="translate(0,0)" fill="rgb(220,99,17)" d="M 1008.8 915.302 C 1010.87 923.303 1003.92 930.287 999.213 936.472 C 1000.29 931.368 1000.42 931.063 998.821 926.366 C 1003.54 923.166 1005.43 919.872 1008.8 915.302 z"/>
<path transform="translate(0,0)" fill="rgb(227,123,41)" d="M 1041.72 902.02 C 1047.55 901.918 1052.27 901.793 1057.77 904.334 C 1058.36 907.705 1058.36 907.458 1057.11 910.654 C 1050.38 914.251 1045.48 906.784 1041.72 902.02 z"/>
<path transform="translate(0,0)" fill="rgb(239,149,63)" d="M 1074.11 940.514 C 1078.52 938.826 1082.97 937.243 1087.45 935.766 C 1093.62 942.289 1102.85 959.606 1097 968.102 C 1092.54 971.31 1088.07 971.238 1082.49 971.827 C 1080.23 959.258 1078.06 952.575 1074.11 940.514 z"/>
<path transform="translate(0,0)" fill="rgb(236,131,51)" d="M 1061.86 894.334 C 1087.31 893.419 1114.08 918.409 1123.51 941.009 C 1111.29 934.976 1115.12 922.483 1094.95 911.049 C 1086.33 907.018 1061.06 893.085 1052.13 896.893 L 1051.55 898.844 C 1054.33 902.864 1057.03 902.877 1061.6 903.579 L 1062.78 903.753 L 1057.77 904.334 C 1052.27 901.793 1047.55 901.918 1041.72 902.02 L 1039.32 900.866 C 1041.73 899.515 1044.09 897.927 1046.41 896.426 C 1054.48 894.261 1058.08 897.335 1061.86 894.334 z"/>
<path transform="translate(0,0)" fill="rgb(251,183,89)" d="M 1015.06 921.012 C 1019.24 912.398 1031.82 902.028 1040.37 909.941 L 1042.93 913.733 C 1041.5 920.273 1030.23 923.414 1024.32 925.91 C 1021.77 924.661 1017.16 922.639 1015.06 921.012 z"/>
<path transform="translate(0,0)" fill="rgb(239,149,63)" d="M 1062.64 912.407 C 1071.7 908.025 1074.64 907.687 1082.91 913.75 C 1083.86 916.009 1083.69 915.109 1083.45 917.598 L 1081.55 918.827 C 1076.17 919.08 1065.58 917.181 1062.64 912.407 z"/>
<path transform="translate(0,0)" fill="rgb(209,100,32)" d="M 1156.11 325.338 C 1171.37 327.29 1186.97 330.427 1202.14 332.975 C 1256.39 342.089 1308.62 352.266 1360.68 370.632 C 1374.01 375.336 1388.33 382.42 1401.83 385.423 C 1403.31 385.752 1407.49 383.86 1409.11 383.154 C 1406.11 387.017 1405.66 388.093 1401.15 389.685 C 1398.25 390.861 1398.3 392.122 1396.21 395.407 C 1363.07 372.649 1229.04 343.679 1183.48 340.155 C 1179.66 339.859 1177.43 340.414 1174.74 342.978 C 1173.46 346.958 1173.96 347.794 1174.86 352.079 C 1181.89 365.186 1191.25 378.079 1198.92 391.309 C 1213.24 416.001 1225.66 441.312 1237.48 467.279 C 1244.26 482.181 1254.68 504.173 1259.27 519.87 L 1254.28 523.195 C 1248.47 508.915 1234.38 480.051 1227.28 465.926 C 1212.85 437.226 1188.41 384.187 1169.07 359.574 C 1166.11 357.655 1167.74 358.04 1163.93 358.823 C 1162.33 360.171 1161.76 360.413 1160.57 362.064 C 1160.27 359.318 1160.09 359.291 1160.83 356.687 C 1161.91 356.474 1163.54 354.624 1164.56 353.687 L 1163.73 352.011 L 1160.33 349.851 L 1158.77 350.538 L 1156.46 355.297 C 1152.74 341 1147.4 340.874 1134.25 335.291 C 1133.2 334.995 1133.88 335.254 1132.38 334.118 L 1134.53 332.148 L 1135.55 331.739 L 1135.9 330.058 L 1138.57 329.132 C 1147.19 324.134 1146.67 326.578 1155.26 325.455 L 1156.11 325.338 z"/>
<path transform="translate(0,0)" fill="rgb(140,41,11)" d="M 1138.57 329.132 C 1143.28 330.255 1146.66 331.073 1151.51 331.743 C 1154.03 332.57 1155.51 333.106 1158.13 333.676 L 1158.53 334.462 C 1160.37 338.036 1160.73 338.392 1163.38 341.395 L 1163.54 343.524 C 1161.6 345.476 1162.23 345.082 1159.9 346.443 L 1160.33 349.851 L 1158.77 350.538 L 1156.46 355.297 C 1152.74 341 1147.4 340.874 1134.25 335.291 C 1133.2 334.995 1133.88 335.254 1132.38 334.118 L 1134.53 332.148 L 1135.55 331.739 L 1135.9 330.058 L 1138.57 329.132 z"/>
<path transform="translate(0,0)" fill="rgb(239,149,63)" d="M 1151.51 331.743 C 1154.03 332.57 1155.51 333.106 1158.13 333.676 L 1158.53 334.462 C 1160.37 338.036 1160.73 338.392 1163.38 341.395 L 1163.54 343.524 C 1161.6 345.476 1162.23 345.082 1159.9 346.443 C 1156.79 341.417 1153.47 338.984 1148.63 335.88 L 1151.51 331.743 z"/>
<path transform="translate(0,0)" fill="rgb(227,123,41)" d="M 1134.25 335.291 C 1144.05 331.575 1154.87 342.227 1158.77 350.538 L 1156.46 355.297 C 1152.74 341 1147.4 340.874 1134.25 335.291 z"/>
<path transform="translate(0,0)" fill="rgb(227,123,41)" d="M 1138.57 329.132 C 1143.28 330.255 1146.66 331.073 1151.51 331.743 L 1148.63 335.88 C 1144.42 334.251 1139.89 333.024 1135.55 331.739 L 1135.9 330.058 L 1138.57 329.132 z"/>
<path transform="translate(0,0)" fill="rgb(220,99,17)" d="M 1166.45 342.724 C 1169.53 350.064 1171.49 346.259 1173.64 352.66 C 1172.99 356.908 1172.88 355.804 1169.07 359.574 C 1166.11 357.655 1167.74 358.04 1163.93 358.823 C 1162.33 360.171 1161.76 360.413 1160.57 362.064 C 1160.27 359.318 1160.09 359.291 1160.83 356.687 C 1161.91 356.474 1163.54 354.624 1164.56 353.687 L 1163.73 352.011 C 1164.35 349.33 1165.64 345.447 1166.45 342.724 z"/>
<path transform="translate(0,0)" fill="rgb(227,123,41)" d="M 1158.13 333.676 C 1163.5 334.406 1169.44 335.332 1174.78 335.865 C 1172.41 337.727 1168.41 340.64 1166.45 342.724 C 1165.64 345.447 1164.35 349.33 1163.73 352.011 L 1160.33 349.851 L 1159.9 346.443 C 1162.23 345.082 1161.6 345.476 1163.54 343.524 L 1163.38 341.395 C 1160.73 338.392 1160.37 338.036 1158.53 334.462 L 1158.13 333.676 z"/>
<path transform="translate(0,0)" fill="rgb(209,100,32)" d="M 596.422 411.305 C 673.791 367.349 757.484 335.604 844.542 317.193 C 863.027 313.423 887.668 308.933 906.565 308.163 C 924.1 311.624 931.283 311.235 947.187 313.136 C 933.311 314.236 920.386 314.602 906.435 316.201 C 792.053 329.318 691.986 368.08 592.118 423.712 L 589.867 422.274 C 592.309 418.236 595.569 419.04 599.913 414.485 L 599.735 412.757 L 596.422 411.305 z"/>
<path transform="translate(0,0)" fill="rgb(209,100,32)" d="M 1104.63 1337.36 C 1106.6 1338.03 1108.98 1339.05 1110.95 1339.16 C 1109.25 1341.38 1109.5 1340.16 1109.67 1342.73 C 1107.63 1369.35 1033.88 1493.46 1014.55 1520.61 C 1003.35 1536.35 987.337 1559.29 976.999 1576.62 C 975.358 1579.37 976.547 1585.2 977.341 1588.31 C 975.407 1592.72 976.93 1591.12 972.579 1593.25 C 968.945 1591.3 962.408 1588.57 959.982 1585.78 L 960.468 1583.68 C 964.146 1582.54 965.388 1582.47 968.117 1579.7 C 969.337 1575.15 969.614 1577.18 967.867 1573.33 C 977.324 1560.79 986.122 1546.78 994.966 1533.75 C 1029.31 1483.16 1059.67 1430 1087.55 1375.61 C 1091.52 1367.85 1095.03 1359.83 1099.31 1352.22 L 1103.49 1341.85 L 1105.75 1341.5 L 1104.63 1337.36 z"/>
<path transform="translate(0,0)" fill="rgb(227,123,41)" d="M 1103.49 1341.85 L 1105.75 1341.5 C 1106.51 1345.86 1104.68 1349.52 1101.87 1352.72 C 1099.9 1352.73 1100.73 1352.98 1099.31 1352.22 L 1103.49 1341.85 z"/>
<path transform="translate(0,0)" fill="rgb(209,100,32)" d="M 1285.59 1395.03 C 1287.99 1395.83 1289.03 1396.25 1291.55 1396.74 L 1291.8 1400.49 L 1296.15 1400.9 C 1298.63 1420.7 1304.83 1448.58 1309.45 1467.96 C 1323.14 1523.76 1339.71 1578.81 1359.1 1632.89 C 1364.58 1648.47 1373.28 1675.83 1382 1688.64 C 1375.28 1687.56 1377.01 1688.89 1371.12 1689.63 C 1366.47 1691.96 1366.61 1692.27 1363.14 1689.08 C 1366 1684.8 1366.44 1684.23 1367.4 1679.17 C 1365.84 1677.26 1356.56 1650.24 1355.12 1646.23 C 1326.39 1566.4 1300.89 1486.82 1289.86 1402.43 C 1288.44 1401.35 1283.81 1399.34 1281.94 1398.47 L 1285.59 1395.03 z"/>
<path transform="translate(0,0)" fill="rgb(236,131,51)" d="M 1367.4 1679.17 L 1369.38 1679.96 C 1371.02 1684.3 1370.91 1684.88 1371.12 1689.63 C 1366.47 1691.96 1366.61 1692.27 1363.14 1689.08 C 1366 1684.8 1366.44 1684.23 1367.4 1679.17 z"/>
<path transform="translate(0,0)" fill="url(#Gradient5)" d="M 1382.6 910.155 C 1448.94 853.876 1538.87 824.074 1625.12 819.122 L 1622.84 822.063 C 1628.35 822.346 1638.23 824.011 1642.44 822.373 L 1642.5 825.253 L 1645.61 828.134 L 1637.41 828.082 C 1622.87 828.139 1610.88 828.858 1596.35 830.074 C 1572.19 833.635 1553.55 837.698 1529.76 844.08 C 1485.53 858.433 1421.42 884.889 1387.44 916.825 C 1384.59 914.777 1384.18 913.271 1382.6 910.155 z"/>
<path transform="translate(0,0)" fill="rgb(220,99,17)" d="M 1582.94 827.786 C 1587.97 828.138 1591.91 827.885 1596.35 830.074 C 1572.19 833.635 1553.55 837.698 1529.76 844.08 C 1530.84 843.342 1531.45 843.063 1532.25 842.125 C 1541.25 831.644 1568.47 829.899 1582.94 827.786 z"/>
<path transform="translate(0,0)" fill="rgb(209,100,32)" d="M 1622.84 822.063 C 1628.35 822.346 1638.23 824.011 1642.44 822.373 L 1642.5 825.253 L 1645.61 828.134 L 1637.41 828.082 C 1622.87 828.139 1610.88 828.858 1596.35 830.074 C 1591.91 827.885 1587.97 828.138 1582.94 827.786 C 1584.62 827.213 1583.68 827.354 1585.54 827.178 C 1597.06 826.089 1608.38 824.334 1620.03 824.088 C 1620.97 823.413 1621.9 822.738 1622.84 822.063 z"/>
<path transform="translate(0,0)" fill="rgb(209,100,32)" d="M 1160.33 349.851 L 1163.73 352.011 L 1164.56 353.687 C 1163.54 354.624 1161.91 356.474 1160.83 356.687 C 1160.09 359.291 1160.27 359.318 1160.57 362.064 C 1139.83 426.13 1141.67 519.951 1152.73 585.368 C 1155.18 599.841 1157.9 620.171 1161.57 634.163 C 1157.96 636.556 1159.93 635.811 1155.34 636.143 C 1148.87 614.188 1144.35 587.4 1140.95 564.657 C 1130.16 492.565 1132.39 424.613 1156.46 355.297 L 1158.77 350.538 L 1160.33 349.851 z"/>
<path transform="translate(0,0)" fill="url(#Gradient4)" d="M 1596.55 1296.79 C 1599.54 1295.75 1598.16 1296.57 1600.42 1293.68 C 1608.03 1303.25 1616.38 1312.92 1623.25 1322.98 C 1652.31 1365.56 1670.02 1415.02 1674.92 1466.33 C 1676.15 1479.2 1676.96 1492 1678.02 1504.87 C 1678.42 1509.71 1681.37 1514.42 1680.54 1518.86 L 1679.23 1519.59 C 1677.06 1518.07 1677.22 1517.25 1676.34 1514.59 C 1676.8 1513.15 1676.67 1514 1676.47 1512.01 L 1673.4 1513.84 L 1672.2 1513.51 C 1672.27 1508.51 1672.09 1507.17 1671.09 1502.22 L 1670.82 1500.93 C 1669.56 1497.36 1668.14 1476.01 1667.51 1470.71 C 1660.19 1409.17 1634.48 1346.42 1593.37 1299.76 C 1594.57 1297.93 1594.67 1298.2 1596.55 1296.79 z"/>
<path transform="translate(0,0)" fill="rgb(209,100,32)" d="M 685.661 1396.15 C 688.3 1391.02 697.876 1377.31 701.41 1372.07 C 729.858 1329.62 765.186 1293.33 807.906 1265.19 C 821.379 1256.32 834.724 1251.37 848.213 1243.2 C 850.651 1241.72 849.912 1237.47 849.869 1234.78 L 852.046 1236.3 C 852.283 1237.3 852.908 1239.66 853.048 1240.73 C 853.378 1248.23 853.251 1247.22 845.771 1250.62 L 845.32 1252.51 L 843.881 1253.4 C 828.41 1262.82 815.933 1268.51 800.324 1280.19 C 764.576 1306.95 713.284 1361.34 693.03 1400.64 L 686.345 1403.81 C 687.29 1399.35 687.212 1399.59 685.661 1396.15 z"/>
<path transform="translate(0,0)" fill="url(#Gradient3)" d="M 503.74 473.978 C 517.175 459.108 576.894 422.149 596.422 411.305 L 599.735 412.757 L 599.913 414.485 C 595.569 419.04 592.309 418.236 589.867 422.274 L 592.118 423.712 C 588.705 426.209 587.811 426.713 583.935 428.41 C 569.263 438.585 525.274 467.32 515.754 478.207 L 510.097 484.518 C 508.809 483.717 509.218 483.724 508.317 481.957 L 505.837 481.167 L 504.59 481.433 L 503.108 480.012 C 503.12 477.184 503.293 476.801 503.74 473.978 z"/>
<path transform="translate(0,0)" fill="rgb(220,99,17)" d="M 515.754 478.207 L 511.328 475.56 C 515.34 466.495 564.259 436.678 575.865 429.945 C 577.493 429.001 581.866 428.568 583.935 428.41 C 569.263 438.585 525.274 467.32 515.754 478.207 z"/>
<path transform="translate(0,0)" fill="rgb(236,131,51)" d="M 1454.67 1062.45 C 1445 1072.05 1431.69 1074.32 1423.67 1061.49 C 1420.81 1056.94 1419.89 1051.42 1421.14 1046.19 C 1422.16 1041.74 1425.06 1037.95 1429.1 1035.81 C 1441.64 1029.07 1452.07 1035.3 1457.87 1047.04 C 1455.32 1048.9 1455.41 1048.96 1452.45 1049.92 C 1455.06 1054.17 1454.39 1051.94 1454.59 1056.88 C 1453.7 1058.22 1452.59 1059.74 1451.92 1061.17 L 1454.67 1062.45 z"/>
<path transform="translate(0,0)" fill="rgb(239,149,63)" d="M 1429.08 1050 C 1429.28 1046.21 1429.42 1046.33 1431.26 1043.21 C 1434.61 1040.81 1434.87 1040.9 1439.13 1040.62 C 1440.29 1041.47 1440.39 1041.79 1441.63 1042.08 C 1444.07 1046.53 1443.87 1044.8 1443.68 1049.45 C 1441.06 1053.68 1436.97 1054.32 1432.37 1055.13 L 1428.85 1051.09 L 1429.08 1050 z"/>
<path transform="translate(0,0)" fill="rgb(190,66,7)" d="M 1441.63 1042.08 C 1446.93 1041.33 1449.21 1046 1452.45 1049.92 C 1455.06 1054.17 1454.39 1051.94 1454.59 1056.88 C 1452.74 1056.32 1451.15 1055.83 1449.34 1055.16 C 1444.85 1056.22 1442.64 1059.39 1439.44 1059.7 C 1437.6 1056.12 1436.23 1056.49 1432.37 1055.13 C 1436.97 1054.32 1441.06 1053.68 1443.68 1049.45 C 1443.87 1044.8 1444.07 1046.53 1441.63 1042.08 z"/>
<path transform="translate(0,0)" fill="rgb(171,52,2)" d="M 1435.84 1063.73 C 1426.29 1063.04 1421.69 1050.97 1427.42 1047.22 L 1428.85 1051.09 L 1432.37 1055.13 C 1436.23 1056.49 1437.6 1056.12 1439.44 1059.7 L 1435.84 1063.73 z"/>
<path transform="translate(0,0)" fill="rgb(220,99,17)" d="M 1439.44 1059.7 C 1442.64 1059.39 1444.85 1056.22 1449.34 1055.16 C 1451.15 1055.83 1452.74 1056.32 1454.59 1056.88 C 1453.7 1058.22 1452.59 1059.74 1451.92 1061.17 C 1449.2 1062.48 1448.43 1063.23 1445.47 1063.01 C 1445.24 1061.42 1445.29 1062.32 1445.45 1060.32 C 1442.51 1060.77 1441.73 1061.84 1439.48 1063.79 L 1435.84 1063.73 L 1439.44 1059.7 z"/>
<path transform="translate(0,0)" fill="rgb(227,123,41)" d="M 1264.19 529.315 C 1285.21 528.605 1295.29 545.275 1279.07 561.373 C 1271.7 564.851 1266.43 565.443 1258.98 561.909 C 1247 552.832 1246.8 540.937 1259.01 531.892 L 1259.07 530.847 L 1264.19 529.315 z"/>
<path transform="translate(0,0)" fill="rgb(171,52,2)" d="M 1260.45 548.507 C 1263.57 551.39 1261.82 550.523 1265.77 551.446 C 1275.76 548.595 1273.16 537.987 1280.6 540.444 C 1284.9 546.186 1280.08 555.04 1276.14 559.82 L 1279.07 561.373 C 1271.7 564.851 1266.43 565.443 1258.98 561.909 C 1261.2 560.869 1260.27 561.657 1261.67 559.434 C 1259.91 555.572 1253.77 553.728 1256.65 544.012 L 1258.47 543.119 C 1258.24 545.127 1258.98 547.125 1260.45 548.507 z"/>
<path transform="translate(0,0)" fill="rgb(227,123,41)" d="M 1261.67 559.434 C 1266.7 559.25 1271.14 559.556 1276.14 559.82 L 1279.07 561.373 C 1271.7 564.851 1266.43 565.443 1258.98 561.909 C 1261.2 560.869 1260.27 561.657 1261.67 559.434 z"/>
<path transform="translate(0,0)" fill="rgb(251,183,89)" d="M 1258.47 543.119 C 1258.81 540.181 1261.13 537.859 1264.06 537.509 C 1267 537.16 1269.79 538.874 1270.81 541.652 C 1271.83 544.429 1270.81 547.542 1268.34 549.175 C 1265.87 550.807 1262.61 550.531 1260.45 548.507 C 1258.98 547.125 1258.24 545.127 1258.47 543.119 z"/>
<path transform="translate(0,0)" fill="rgb(209,100,32)" d="M 988.903 304.755 C 1016.72 305.099 1042.88 307.92 1070.5 311.563 C 1078.84 312.52 1087.05 313.309 1095.26 315.114 C 1086.86 320.804 1093.26 320.547 1088.25 322.457 C 1084.27 322.028 1079.95 321.287 1075.96 320.688 C 1071.92 320.493 1066.47 319.717 1062.34 319.121 C 1037.34 315.508 1012.68 314.406 987.458 313.159 L 988.903 304.755 z"/>
<path transform="translate(0,0)" fill="rgb(227,123,41)" d="M 1070.5 311.563 C 1078.84 312.52 1087.05 313.309 1095.26 315.114 C 1086.86 320.804 1093.26 320.547 1088.25 322.457 C 1084.27 322.028 1079.95 321.287 1075.96 320.688 C 1076.34 319.243 1076.62 317.938 1076.94 316.482 C 1073.59 315.3 1073.59 317.19 1068.98 317.038 L 1068.46 315.343 L 1070.5 311.563 z"/>
<path transform="translate(0,0)" fill="rgb(227,123,41)" d="M 1161.57 634.163 C 1168.41 633.39 1172.78 634.791 1177.77 639.721 C 1182.22 647.744 1183.01 656.227 1174.89 662.338 C 1170.57 665.526 1165.12 666.762 1159.86 665.748 C 1145.81 663.046 1143.03 643.85 1153.66 637.342 L 1155.34 636.143 C 1159.93 635.811 1157.96 636.556 1161.57 634.163 z"/>
<path transform="translate(0,0)" fill="rgb(171,52,2)" d="M 1154.17 646.996 C 1156.49 652.253 1158.42 655.492 1164.27 654.465 C 1167.22 652.13 1168.27 648.729 1169.82 645.231 L 1171.55 644.57 C 1177.07 645.609 1178.61 648.526 1177.22 653.48 C 1162.92 669.202 1147.96 658.093 1153.3 646.084 L 1154.17 646.996 z"/>
<path transform="translate(0,0)" fill="rgb(239,149,63)" d="M 1161.57 634.163 C 1168.41 633.39 1172.78 634.791 1177.77 639.721 C 1172.95 642.972 1173.74 642.157 1168.41 643.165 C 1163.85 643.191 1160.32 642.954 1155.77 642.595 C 1155.54 641.401 1154.21 638.608 1153.66 637.342 L 1155.34 636.143 C 1159.93 635.811 1157.96 636.556 1161.57 634.163 z"/>
<path transform="translate(0,0)" fill="rgb(251,183,89)" d="M 1155.77 642.595 C 1160.32 642.954 1163.85 643.191 1168.41 643.165 C 1168.1 648.374 1168.87 647.306 1166.41 651.227 C 1160.74 652.771 1158.85 649.109 1154.17 646.996 L 1155.77 642.595 z"/>
<path transform="translate(0,0)" fill="url(#Gradient2)" d="M 1574.79 1272.35 C 1591 1263.58 1607.88 1275.77 1602.37 1289.57 C 1601.82 1290.99 1601.16 1292.36 1600.42 1293.68 C 1598.16 1296.57 1599.54 1295.75 1596.55 1296.79 C 1594.67 1298.2 1594.57 1297.93 1593.37 1299.76 C 1586.92 1303.33 1582 1301.15 1575.97 1298 C 1567.61 1290.11 1567.65 1280.92 1574.79 1272.35 z"/>
<path transform="translate(0,0)" fill="rgb(171,52,2)" d="M 1589.92 1284.22 C 1591.72 1287.81 1591.44 1292.07 1592.26 1296.41 L 1593.95 1296.19 L 1596.55 1296.79 C 1594.67 1298.2 1594.57 1297.93 1593.37 1299.76 C 1586.92 1303.33 1582 1301.15 1575.97 1298 L 1576.38 1294.24 L 1578.82 1295.43 C 1581.21 1294.92 1580.34 1295.22 1582.43 1293.77 C 1582.13 1291.06 1581.79 1291.58 1579.31 1289.14 C 1585.69 1289.07 1585.74 1289.13 1589.92 1284.22 z"/>
<path transform="translate(0,0)" fill="rgb(209,100,32)" d="M 1576.38 1294.24 L 1578.82 1295.43 C 1584.28 1296.24 1586.78 1296.61 1592.26 1296.41 L 1593.95 1296.19 L 1596.55 1296.79 C 1594.67 1298.2 1594.57 1297.93 1593.37 1299.76 C 1586.92 1303.33 1582 1301.15 1575.97 1298 L 1576.38 1294.24 z"/>
<path transform="translate(0,0)" fill="rgb(236,131,51)" d="M 1575.97 1298 C 1567.61 1290.11 1567.65 1280.92 1574.79 1272.35 C 1575.39 1274.69 1575.77 1277.01 1576.89 1279.07 C 1576.15 1284.56 1575.36 1284.56 1579.31 1289.14 C 1581.79 1291.58 1582.13 1291.06 1582.43 1293.77 C 1580.34 1295.22 1581.21 1294.92 1578.82 1295.43 L 1576.38 1294.24 L 1575.97 1298 z"/>
<path transform="translate(0,0)" fill="rgb(171,52,2)" d="M 1576.38 1294.24 C 1573.74 1288.61 1572.71 1286.21 1574.67 1280.17 L 1576.89 1279.07 C 1576.15 1284.56 1575.36 1284.56 1579.31 1289.14 C 1581.79 1291.58 1582.13 1291.06 1582.43 1293.77 C 1580.34 1295.22 1581.21 1294.92 1578.82 1295.43 L 1576.38 1294.24 z"/>
<path transform="translate(0,0)" fill="rgb(190,66,7)" d="M 1589.92 1284.22 L 1590.59 1280.57 L 1592.4 1279.38 C 1599.39 1281.65 1596.84 1291.42 1593.95 1296.19 L 1592.26 1296.41 C 1591.44 1292.07 1591.72 1287.81 1589.92 1284.22 z"/>
<path transform="translate(0,0)" fill="rgb(236,131,51)" d="M 1387.44 916.825 C 1391.52 924.956 1389.39 934.488 1380.49 937.974 C 1375.49 939.944 1369.91 939.835 1364.99 937.674 C 1342.63 927.749 1363.84 897.698 1382.6 910.155 C 1384.18 913.271 1384.59 914.777 1387.44 916.825 z"/>
<path transform="translate(0,0)" fill="rgb(190,66,7)" d="M 1363.93 924.354 C 1369.48 925.535 1368.2 926.067 1372.98 924.588 C 1375.86 921.642 1375.89 920.891 1377.36 916.885 C 1380.39 917.061 1381.26 918.892 1384.7 920.745 C 1385.78 927.041 1378.9 931.845 1374.02 934.6 C 1364.47 935.355 1356.66 928.134 1361.9 919.455 L 1363.43 919.313 L 1363.93 924.354 z"/>
<path transform="translate(0,0)" fill="rgb(171,52,2)" d="M 1374.02 934.6 C 1364.47 935.355 1356.66 928.134 1361.9 919.455 L 1363.43 919.313 L 1363.93 924.354 C 1367.28 931.65 1370.74 928.89 1374.02 934.6 z"/>
<path transform="translate(0,0)" fill="rgb(239,149,63)" d="M 1409.11 383.154 C 1420.09 382.511 1430.89 386.586 1430.62 399.278 C 1430.47 404.376 1428.16 409.17 1424.27 412.461 C 1411.21 423.309 1400.95 411.512 1396.36 399.234 C 1397.93 396.51 1400.64 392.534 1401.15 389.685 C 1405.66 388.093 1406.11 387.017 1409.11 383.154 z"/>
<path transform="translate(0,0)" fill="rgb(171,52,2)" d="M 1423.33 394.308 C 1434.89 399.434 1425.88 415.165 1405.47 409.565 C 1403.03 405.45 1403.16 405.103 1402.87 400.173 L 1403.93 399.166 C 1406.7 400.089 1409.21 402.697 1412.5 404.559 C 1417.96 403.4 1420.1 398.946 1423.33 394.308 z"/>
<path transform="translate(0,0)" fill="rgb(171,52,2)" d="M 849.869 1234.78 C 855.398 1223.06 862.82 1219.45 875.301 1223.71 C 879.558 1227.94 880.796 1229.56 882.571 1235.4 C 882.444 1254.54 868.242 1257.69 853.611 1249.23 C 850.301 1250.29 848.501 1251.08 845.32 1252.51 L 845.771 1250.62 C 853.251 1247.22 853.378 1248.23 853.048 1240.73 C 852.908 1239.66 852.283 1237.3 852.046 1236.3 L 849.869 1234.78 z"/>
<path transform="translate(0,0)" fill="rgb(209,100,32)" d="M 875.915 1236.13 C 878.821 1234.4 878.402 1235.06 882.571 1235.4 C 882.444 1254.54 868.242 1257.69 853.611 1249.23 C 850.301 1250.29 848.501 1251.08 845.32 1252.51 L 845.771 1250.62 C 853.251 1247.22 853.378 1248.23 853.048 1240.73 C 858.233 1253.64 878.518 1249.57 878.358 1237.72 L 875.915 1236.13 z"/>
<path transform="translate(0,0)" fill="rgb(239,149,63)" d="M 849.869 1234.78 C 855.398 1223.06 862.82 1219.45 875.301 1223.71 L 870.849 1228.04 L 868.11 1228.71 C 867.388 1230.79 867.452 1229.68 868.154 1232.03 C 865.401 1229.34 865.039 1228.65 861.238 1227.71 C 857.808 1228.65 859.162 1227.68 857.209 1230.92 C 857.146 1233.8 857.194 1234.05 857.74 1236.89 C 855.06 1235.95 855.076 1236.26 852.046 1236.3 L 849.869 1234.78 z"/>
<path transform="translate(0,0)" fill="rgb(251,183,89)" d="M 857.74 1236.89 C 857.194 1234.05 857.146 1233.8 857.209 1230.92 C 859.162 1227.68 857.808 1228.65 861.238 1227.71 C 865.039 1228.65 865.401 1229.34 868.154 1232.03 C 870.327 1234.62 869.783 1233.18 869.924 1236.49 C 866.493 1241.51 861.443 1241.79 857.74 1236.89 z"/>
<path transform="translate(0,0)" fill="rgb(227,123,41)" d="M 875.301 1223.71 C 879.558 1227.94 880.796 1229.56 882.571 1235.4 C 878.402 1235.06 878.821 1234.4 875.915 1236.13 L 874.462 1236.41 C 870.563 1234.03 875.519 1233.37 870.849 1228.04 L 875.301 1223.71 z"/>
<path transform="translate(0,0)" fill="rgb(209,100,32)" d="M 1099.2 1324.05 C 1106.27 1310.62 1118.01 1308.92 1127.86 1320.62 C 1133.71 1335.03 1123.63 1348.3 1109.67 1342.73 C 1109.5 1340.16 1109.25 1341.38 1110.95 1339.16 C 1108.98 1339.05 1106.6 1338.03 1104.63 1337.36 L 1106.17 1331.55 L 1106.25 1330.73 C 1105.62 1328.3 1105.78 1328.92 1104.52 1326.68 C 1101.52 1325.94 1101.28 1326.2 1099.2 1324.05 z"/>
<path transform="translate(0,0)" fill="rgb(236,131,51)" d="M 1099.2 1324.05 C 1106.27 1310.62 1118.01 1308.92 1127.86 1320.62 L 1124.37 1324.12 C 1120.98 1320.84 1119.58 1318.43 1115.22 1318.19 L 1113.61 1318.98 C 1112.57 1324.56 1116.82 1326.37 1115.22 1329.73 C 1111.27 1330.73 1110.39 1330.66 1106.25 1330.73 C 1105.62 1328.3 1105.78 1328.92 1104.52 1326.68 C 1101.52 1325.94 1101.28 1326.2 1099.2 1324.05 z"/>
<path transform="translate(0,0)" fill="rgb(227,123,41)" d="M 1127.86 1320.62 C 1133.71 1335.03 1123.63 1348.3 1109.67 1342.73 C 1109.5 1340.16 1109.25 1341.38 1110.95 1339.16 C 1120.84 1337.26 1125.29 1335.91 1123.94 1324.66 L 1124.37 1324.12 L 1127.86 1320.62 z"/>
<path transform="translate(0,0)" fill="rgb(140,41,11)" d="M 1106.17 1331.55 C 1109.71 1334.18 1109.91 1334.13 1114.44 1334.51 C 1118.26 1332.97 1116.97 1333.68 1119.68 1329.9 L 1119.75 1330.19 C 1123.9 1326.37 1117.37 1329.13 1123.94 1324.66 C 1125.29 1335.91 1120.84 1337.26 1110.95 1339.16 C 1108.98 1339.05 1106.6 1338.03 1104.63 1337.36 L 1106.17 1331.55 z"/>
<path transform="translate(0,0)" fill="url(#Gradient1)" d="M 1285.38 1372.63 C 1305.3 1373.4 1308.83 1386.75 1296.15 1400.9 L 1291.8 1400.49 L 1291.55 1396.74 C 1289.03 1396.25 1287.99 1395.83 1285.59 1395.03 L 1281.94 1398.47 C 1271.71 1389.66 1273.78 1378.9 1285.38 1372.63 z"/>
<path transform="translate(0,0)" fill="rgb(236,131,51)" d="M 1281.94 1398.47 C 1271.71 1389.66 1273.78 1378.9 1285.38 1372.63 C 1282.88 1377.67 1280.56 1381.75 1284.24 1387.04 C 1282.24 1388.74 1282.87 1387.97 1281.81 1390.45 C 1283.4 1393.05 1283.33 1392.99 1285.59 1395.03 L 1281.94 1398.47 z"/>
<path transform="translate(0,0)" fill="rgb(91,27,12)" d="M 1284.24 1387.04 C 1288.35 1387.35 1293.54 1386.79 1296.84 1388.87 C 1296.95 1392.72 1294.45 1394.5 1291.55 1396.74 C 1289.03 1396.25 1287.99 1395.83 1285.59 1395.03 C 1283.33 1392.99 1283.4 1393.05 1281.81 1390.45 C 1282.87 1387.97 1282.24 1388.74 1284.24 1387.04 z"/>
<path transform="translate(0,0)" fill="rgb(236,131,51)" d="M 906.565 308.163 C 932.882 304.044 962.141 304.724 988.903 304.755 L 987.458 313.159 C 974.156 312.889 960.617 313.364 947.187 313.136 C 931.283 311.235 924.1 311.624 906.565 308.163 z"/>
<path transform="translate(0,0)" fill="rgb(209,100,32)" d="M 1095.26 315.114 C 1114.52 317.944 1137.41 320.67 1156.11 325.338 L 1155.26 325.455 C 1146.67 326.578 1147.19 324.134 1138.57 329.132 L 1135.9 330.058 L 1135.55 331.739 L 1134.53 332.148 C 1119.11 327.089 1103.88 326.089 1088.25 322.457 C 1093.26 320.547 1086.86 320.804 1095.26 315.114 z"/>
<path transform="translate(0,0)" fill="rgb(227,123,41)" d="M 1099.2 1324.05 C 1101.28 1326.2 1101.52 1325.94 1104.52 1326.68 C 1105.78 1328.92 1105.62 1328.3 1106.25 1330.73 L 1106.17 1331.55 L 1104.63 1337.36 L 1105.75 1341.5 L 1103.49 1341.85 C 1098.55 1334.79 1098.4 1332.57 1099.2 1324.05 z"/>
<path transform="translate(0,0)" fill="rgb(236,131,51)" d="M 1254.28 523.195 L 1259.27 519.87 C 1261.1 522.591 1264.21 526.34 1264.19 529.315 L 1259.07 530.847 C 1257.02 528.44 1255.86 525.977 1254.28 523.195 z"/>
</svg>